<svg xmlns="http://www.w3.org/2000/svg" viewBox="0 0 274.04 330.91"><defs><style>.cls-1{fill:#6d6e70;}.cls-2{fill:#e0b88e;}.cls-3{fill:#ebd0b3;}.cls-4{fill:#233a6c;}.cls-5{fill:#b5b7b9;}.cls-6{fill:#216c75;}.cls-7{fill:#2b9094;}.cls-8{fill:#f6d9ab;}.cls-9{fill:#c6b086;}.cls-10{fill:#a57455;}.cls-11{fill:#ff1654;}</style></defs><title>avatar_default</title><g id="Calque_2" data-name="Calque 2"><g id="Calque_1-2" data-name="Calque 1"><polygon class="cls-1" points="154.75 233.55 124.06 233.55 128.26 225.58 150.41 225.58 154.75 233.55"/><polygon class="cls-2" points="139.27 209.07 147.71 209.54 147.71 229.35 197.87 254.65 207.41 318.23 139.27 318.23 139.27 209.07"/><polygon class="cls-3" points="139.27 250.03 139.27 209.54 130.87 209.54 130.87 229.35 80.7 254.65 71.16 318.23 139.31 318.23 139.31 250.13 139.27 250.03"/><path class="cls-4" d="M137.16,203.92l-34-19.09s-2.65.83-7.08,2.41l41.13,137.32,41.13-137.32c-4.43-1.58-7.09-2.41-7.09-2.41l-34,19.09Z"/><polygon class="cls-5" points="96.03 187.24 137.16 324.56 82.87 265.33 89.87 237.32 75.93 195.11 96.03 187.24 96.03 187.24"/><polygon class="cls-5" points="178.29 187.24 137.16 324.56 191.45 265.33 184.45 237.32 198.38 195.11 178.29 187.24 178.29 187.24"/><polygon class="cls-5" points="227.71 318.2 190.51 318.2 190.51 311.35 227.71 311.35 227.71 318.2 227.71 318.2"/><path class="cls-6" d="M267.53,272.44a84.56,84.56,0,0,0-43-64.66,329.44,329.44,0,0,0-53.75-23.15L137,203.55l-33.8-18.92a329.34,329.34,0,0,0-53.76,23.15A84.55,84.55,0,0,0,6.51,272.44L0,330.91H274l-6.51-58.47Z"/><path class="cls-7" d="M137,203.55l-33.8-18.92s-2.63.83-7,2.39L137,257.36,177.85,187c-4.4-1.56-7-2.39-7-2.39L137,203.55Z"/><polygon class="cls-8" points="164.32 146.79 137.02 146.79 109.72 146.79 103.22 184.63 137.02 242.85 170.82 184.63 164.32 146.79 164.32 146.79"/><path class="cls-9" d="M164.32,146.79h-54.6l-2.42,18.44C117,175.12,126,178.81,137,178.81s20-3.69,29.72-13.58l-2.42-18.44Z"/><path class="cls-8" d="M202,84.61c-5.1-4.87-7.93-4.94-9.47-3.8-.09-1.11-.16-1.72-.16-1.72C192.41,28.16,137,34,137,34S81.63,28.16,81.63,79.09c0,0-.07.61-.16,1.72-1.54-1.14-4.37-1.07-9.47,3.8-6.72,6.41,7,24.53,5,29s1.3,11.87,8.06,9a55.92,55.92,0,0,0,8.27,17.66c16,21.83,27.7,29.11,43.73,29.11s27.7-7.28,43.73-29.11A55.92,55.92,0,0,0,189,122.58c6.76,2.86,10-4.7,8-9s11.69-22.55,5-29Z"/><path class="cls-10" d="M137,2S60.3-19.73,76.55,81.12l12.29,27-7.21-29,16-23.76V48.05s24.78,6.8,39.36,6.8,39.36-6.8,39.36-6.8v7.28l16,23.76-7.21,29,12.29-27C213.74-19.73,137,2,137,2Z"/><polygon class="cls-11" points="221.16 299.13 210.71 299.13 210.71 288.7 197.1 288.7 197.1 299.13 186.66 299.13 186.66 312.72 197.1 312.72 197.1 323.15 210.71 323.15 210.71 312.72 221.16 312.72 221.16 299.13 221.16 299.13"/></g></g></svg>