<svg xmlns="http://www.w3.org/2000/svg" viewBox="0 0 52 52"><defs><style>.cls-1,.cls-2{fill:none;}.cls-2{stroke:#294C51;stroke-linecap:round;stroke-linejoin:round;stroke-width:1.5px;}</style></defs><title>settings</title><g id="Calque_2" data-name="Calque 2"><g id="Calque_1-2" data-name="Calque 1"><path class="cls-1" d="M0,0H52V52H0Z"/><path class="cls-1" d="M0,0H52V52H0Z"/><path class="cls-1" d="M0,0H52V52H0Z"/><path class="cls-2" d="M22.37,9.35a3.74,3.74,0,0,1,7.26,0,3.72,3.72,0,0,0,4.51,2.75,3.78,3.78,0,0,0,1.06-.44,3.74,3.74,0,0,1,5.14,5.14,3.73,3.73,0,0,0,1.25,5.13,3.55,3.55,0,0,0,1.06.44,3.74,3.74,0,0,1,0,7.26,3.72,3.72,0,0,0-2.75,4.51,3.78,3.78,0,0,0,.44,1.06,3.74,3.74,0,0,1-5.14,5.14,3.73,3.73,0,0,0-5.13,1.25,3.55,3.55,0,0,0-.44,1.06,3.74,3.74,0,0,1-7.26,0,3.72,3.72,0,0,0-4.51-2.75,3.78,3.78,0,0,0-1.06.44,3.74,3.74,0,0,1-5.14-5.14,3.73,3.73,0,0,0-1.25-5.13,3.55,3.55,0,0,0-1.06-.44,3.74,3.74,0,0,1,0-7.26,3.72,3.72,0,0,0,2.75-4.51,3.78,3.78,0,0,0-.44-1.06,3.74,3.74,0,0,1,5.14-5.14A3.73,3.73,0,0,0,22.37,9.35Z"/><circle class="cls-2" cx="26" cy="26" r="6.5"/></g></g></svg>
