<svg xmlns="http://www.w3.org/2000/svg" xmlns:xlink="http://www.w3.org/1999/xlink" viewBox="0 0 319.79 349.15"><defs><style>.cls-1{fill:none;}.cls-2{isolation:isolate;}.cls-3,.cls-7{fill:#fff;}.cls-3{opacity:0.78;mix-blend-mode:screen;}.cls-4{fill:#226c75;}.cls-5{clip-path:url(#clip-path);}.cls-12,.cls-6{opacity:0.5;}.cls-12,.cls-6,.cls-9{mix-blend-mode:multiply;}.cls-6{fill:url(#linear-gradient);}.cls-8{fill:#cee4e9;}.cls-9{opacity:0.4;fill:url(#linear-gradient-2);}.cls-10{fill:#173b60;}.cls-11{fill:#215f89;}.cls-12{fill:url(#linear-gradient-3);}.cls-13{fill:#036f9b;}.cls-14{fill:#aeaeae;}.cls-15{fill:#6e4b2b;}.cls-16{fill:#6e6f71;}.cls-17{fill:#e0b88e;}.cls-18{fill:#ecd0b3;}.cls-19{fill:#dcdcdb;}.cls-20{fill:#b7b7b8;}.cls-21{fill:#f4e8d9;}.cls-22{fill:#e62256;}.cls-23{fill:#8c1c31;}.cls-24{fill:#33a3a7;}.cls-25{fill:#2c9194;}.cls-26{fill:#f6d9ab;}.cls-27{fill:#c7b187;}.cls-28{fill:#a57555;}.cls-29{fill:#0f1218;}.cls-30{fill:#919193;}.cls-31{fill:#b5b6b7;}.cls-32{fill:#dbdbda;}.cls-33{fill:#414142;}.cls-34{fill:#deb68d;}.cls-35{fill:#ec6c86;}</style><clipPath id="clip-path"><path class="cls-1" d="M316.61,249.66a9.62,9.62,0,0,1-4.33,7.5L175.75,336a9.6,9.6,0,0,1-8.67,0L30.54,257.16a9.59,9.59,0,0,1-4.33-7.5V92a9.61,9.61,0,0,1,4.33-7.51L167.08,5.67a9.6,9.6,0,0,1,8.67,0L312.28,84.49A9.64,9.64,0,0,1,316.61,92Z"/></clipPath><linearGradient id="linear-gradient" x1="43.15" y1="260.17" x2="389.58" y2="-111.33" gradientTransform="matrix(0.53, -0.02, -0.02, 0.53, 6.36, 170.43)" gradientUnits="userSpaceOnUse"><stop offset="0.18" stop-color="#fff"/><stop offset="0.26" stop-color="#f9f9f9"/><stop offset="0.36" stop-color="#e7e7e7"/><stop offset="0.48" stop-color="#c9c9c9"/><stop offset="0.62" stop-color="#a0a0a0"/><stop offset="0.76" stop-color="#6c6c6c"/><stop offset="0.91" stop-color="#2d2d2d"/><stop offset="1" stop-color="#050505"/></linearGradient><linearGradient id="linear-gradient-2" x1="403.28" y1="364.73" x2="441.3" y2="323.96" gradientTransform="matrix(0.75, 0, 0, 1.21, -237.51, -256.96)" gradientUnits="userSpaceOnUse"><stop offset="0.1" stop-color="#fff"/><stop offset="0.21" stop-color="#fbfbfb"/><stop offset="0.3" stop-color="#f1f1f1"/><stop offset="0.39" stop-color="#dedede"/><stop offset="0.47" stop-color="#c5c5c5"/><stop offset="0.55" stop-color="#a4a4a4"/><stop offset="0.63" stop-color="#7b7b7b"/><stop offset="0.72" stop-color="#4b4b4b"/><stop offset="0.79" stop-color="#141414"/><stop offset="0.81" stop-color="#050505"/></linearGradient><linearGradient id="linear-gradient-3" x1="28.53" y1="279.33" x2="156.84" y2="175.81" gradientUnits="userSpaceOnUse"><stop offset="0.38" stop-color="#fff"/><stop offset="0.46" stop-color="#e6e6e6"/><stop offset="0.63" stop-color="#a5a5a5"/><stop offset="0.87" stop-color="#3e3e3e"/><stop offset="1" stop-color="#050505"/></linearGradient></defs><title>icone_transmission2</title><g class="cls-2"><g id="Calque_2" data-name="Calque 2"><g id="Calque_1-2" data-name="Calque 1"><path class="cls-3" d="M319.79,251.17a9.89,9.89,0,0,1-4.43,7.7l-140,80.8a9.85,9.85,0,0,1-8.88,0l-140-80.8a9.85,9.85,0,0,1-4.44-7.7V89.56a9.83,9.83,0,0,1,4.44-7.69l140-80.81a9.85,9.85,0,0,1,8.88,0l140,80.81a9.87,9.87,0,0,1,4.43,7.69Z"/><path class="cls-4" d="M316.15,249.2a9.62,9.62,0,0,1-4.33,7.5L175.28,335.53a9.64,9.64,0,0,1-8.66,0L30.08,256.7a9.62,9.62,0,0,1-4.33-7.5V91.54A9.64,9.64,0,0,1,30.08,84L166.62,5.21a9.57,9.57,0,0,1,8.66,0L311.82,84a9.64,9.64,0,0,1,4.33,7.51Z"/><g class="cls-5"><polygon class="cls-6" points="93.84 128.19 134.06 99.52 178.44 123.1 221.04 110.83 229.29 146.22 284.4 216.63 70.27 349.15 0 270.1 0.93 143.21 62.58 108.42 93.84 128.19"/></g><path class="cls-7" d="M137,178.25v-.51c-2.28-15.21-11.58-13.19-34.49-24l-21.14.33c-21,9.3-33.81,12.68-34.15,26.21L44.66,203.1h94.51Z"/><path class="cls-8" d="M80.76,144.69c-.25,4.05-2.79,12.42-6.59,15.22,4.06,7.09,13.18,14.71,17.25,15.21-.26-15.47,0-30.43,0-30.43Z"/><path class="cls-7" d="M101.81,144.69c.26,4.05,2.79,12.42,6.6,15.22-4.06,7.09-13.2,14.71-17.25,15.21.26-15.47,0-30.43,0-30.43Z"/><rect class="cls-9" x="56.36" y="147.54" width="47.29" height="21.2" transform="translate(-93.86 123.78) rotate(-51.99)"/><path class="cls-8" d="M72.89,104.93c-2.28,4.23-1.12,9.79-.83,15.48-1.41.37-2.23,1.38-2.23,4.11,0,4,1.82,10.43,4.66,11.34.36,1,.77,1.94,1.2,2.87l.09.15a34.41,34.41,0,0,0,3.27,5.36,25.57,25.57,0,0,0,1.78,2.16c3.14,3.42,6.81,5.5,10.76,5.84v-58C85,94.25,76.59,98.12,72.89,104.93Z"/><path class="cls-7" d="M91.39,94.21v58c3.94-.34,7.61-2.42,10.75-5.84a25.57,25.57,0,0,0,1.78-2.16,34.41,34.41,0,0,0,3.27-5.36s.06-.09.09-.15c.43-.93.84-1.88,1.2-2.87,2.85-.91,4.67-7.3,4.67-11.34,0-2.73-.83-3.74-2.24-4.11.29-5.69,1.44-11.25-.83-15.48C106.39,98.12,98,94.25,91.39,94.21Z"/><path class="cls-10" d="M91.42,93c-4.57-1.52-14.82.17-19.29,5.83-6.58,8.37-6.33,24.48-6.33,24.48l8.37-1.14s2.45-10.32,11.58-13.87C92.63,105.57,91.42,93,91.42,93Z"/><path class="cls-11" d="M82,100.82c1.52,7.6,16.57,8.61,21.64,11.15s5,9.89,5,9.89l4.31-1.27s5.08-14.73-4.31-23.07c-9.13-8.12-19-4.82-23.08-3.81S82,100.82,82,100.82Z"/><path class="cls-7" d="M108.81,91.89A34.08,34.08,0,0,0,91.5,86.11H91a34.08,34.08,0,0,0-17.3,5.78c2.88,7.69,4.94,12.5,4.94,12.5a37.07,37.07,0,0,1,25.27,0S105.92,99.58,108.81,91.89Z"/><path class="cls-10" d="M96.07,92.23H93.51a.09.09,0,0,1-.1-.09V89.57a.18.18,0,0,0-.18-.18H89.87a.18.18,0,0,0-.19.18v2.57a.1.1,0,0,1-.1.09H87a.18.18,0,0,0-.18.19v3.36A.19.19,0,0,0,87,96h2.56a.1.1,0,0,1,.1.09v2.56a.18.18,0,0,0,.19.18h3.36a.18.18,0,0,0,.18-.18V96.06a.09.09,0,0,1,.1-.09h2.56a.2.2,0,0,0,.19-.19V92.42A.19.19,0,0,0,96.07,92.23Z"/><polygon class="cls-12" points="155.06 226.31 76.7 276.93 28.86 230 126.4 173.61 155.06 226.31"/><path class="cls-13" d="M147.82,167.05c-2.7,1-3.84,1.71-4.39,2.31s-1.58,2.07-1.56,5.52c0,2.46-.45,18.34,3.53,28.53.4.8,1.16.52,1.56-.09.52-.77,1.35-6.23.79-6.68s-1.74-.9-2.25-1.86.13-17.68.43-18.52,1.32-.71,2-.59A43.77,43.77,0,0,1,147.82,167.05Z"/><path class="cls-10" d="M162.7,177H46.93a2,2,0,0,0-2,2v150.1a2,2,0,0,0,2,2H162.7a2,2,0,0,0,2-2V179A2,2,0,0,0,162.7,177Z"/><path class="cls-7" d="M149.24,297.38s-13,13.84-12.84,13.84H61.89a1.5,1.5,0,0,1-1.5-1.51V198.41a1.5,1.5,0,0,1,1.5-1.5h85.86a1.5,1.5,0,0,1,1.49,1.5Z"/><path class="cls-14" d="M125.68,173.37H83.94a1.85,1.85,0,0,0,0,3.69h3.24a4.29,4.29,0,0,0-.71,2.37,4.39,4.39,0,0,0,4.38,4.38h27.93a4.38,4.38,0,0,0,3.68-6.75h3.22a1.85,1.85,0,1,0,0-3.69Z"/><rect class="cls-8" x="73.35" y="213.48" width="62.93" height="2.55"/><rect class="cls-8" x="73.35" y="224.45" width="62.93" height="2.55"/><rect class="cls-8" x="73.35" y="236.19" width="62.93" height="2.55"/><rect class="cls-8" x="73.35" y="247.16" width="62.93" height="2.55"/><rect class="cls-8" x="73.35" y="258.9" width="62.93" height="2.55"/><rect class="cls-8" x="73.35" y="269.87" width="62.93" height="2.55"/><rect class="cls-8" x="73.35" y="281.61" width="62.93" height="2.55"/><path class="cls-14" d="M137.85,297.34h11.42l-12.92,13.91V298.84A1.5,1.5,0,0,1,137.85,297.34Z"/><path class="cls-8" d="M154.52,276.91s-.93,2.22-1.39,2.22-1.45-2.29-1.45-2.29Z"/><path class="cls-7" d="M154.52,277c1.12-2.51,2-10.31,2.16-11.81l-7.11,0A72.89,72.89,0,0,0,151.71,277Z"/><path class="cls-8" d="M156.64,265.42c.74-3.64,2.18-56,2.18-56H147s1.94,52.39,2.68,56.05C153.85,265.53,155.91,265.44,156.64,265.42Z"/><path class="cls-13" d="M152.91,167.52h0l5.94-.39c0-.51.44-7.56-5.94-7.67h-.07c-6.39.11-5.94,7.16-5.94,7.67l5.93.39a0,0,0,0,0,0,0Z"/><path class="cls-8" d="M152.88,207.79l1.67.18v-.35l4.36-.14c0-.36.35-39.65-.06-41.54-2.77-.07-4.72-.07-6-.05s-3.19,0-5.95.05c-.42,1.89.19,40.83.19,41.19l4.1.49V208Z"/><path class="cls-13" d="M146.88,210a.23.23,0,0,1-.25-.23v-3a.25.25,0,0,1,.25-.24h12.38a.25.25,0,0,1,.25.24v3a.24.24,0,0,1-.25.23Z"/><circle class="cls-15" cx="253.04" cy="87.02" r="15.45"/><polygon class="cls-16" points="260.17 177.67 246.05 177.67 247.98 174 258.17 174 260.17 177.67"/><polygon class="cls-17" points="253.04 166.4 256.93 166.62 256.93 175.73 280.01 187.38 284.4 216.63 253.04 216.63 253.04 166.4"/><polygon class="cls-18" points="253.04 185.25 253.04 166.62 249.18 166.62 249.18 175.73 226.1 187.38 221.71 216.63 253.06 216.63 253.06 185.3 253.04 185.25"/><polygon class="cls-19" points="280.01 187.38 256.93 175.73 253.08 180.97 249.18 175.73 226.1 187.38 221.71 216.63 253.04 216.63 253.06 216.63 284.4 216.63 280.01 187.38"/><polygon class="cls-20" points="284.4 216.63 280.01 187.38 256.93 175.73 253.08 180.97 253.06 216.63 284.4 216.63"/><path class="cls-21" d="M284.59,117.63a29.46,29.46,0,0,0-29.4-29.53H250.8a29.47,29.47,0,0,0-29.41,29.53V128.1h-.16a6.38,6.38,0,0,0,0,12.76c.23,0,.45,0,.68,0a31.59,31.59,0,0,0,62.76-5.32C284.67,134.79,284.59,117.63,284.59,117.63Z"/><path class="cls-18" d="M285.21,128.09a5.44,5.44,0,0,0-.57,0c0-4.92-.05-10.49-.05-10.49A29.46,29.46,0,0,0,255.2,88.1H253v79.16a31.68,31.68,0,0,0,31.19-26.49,6.27,6.27,0,0,0,1,.08,6.38,6.38,0,0,0,0-12.76Z"/><path class="cls-15" d="M287.4,128.39h0a37.46,37.46,0,0,0-1.17-19.17C281.32,94.69,269.68,84.47,253,84.47a28.9,28.9,0,0,0-5.69.4,39,39,0,0,0-4.6.94v21.58c0-.11,0-.22,0-.33.4,14.65,13.62,20.87,29.88,20.87,2.49,0,6.07-.12,8.82-.23h0Z"/><path class="cls-15" d="M242.67,85.91c-12.66,3.39-20.2,12.83-23.47,25a37.45,37.45,0,0,0-.46,17.17h0c15.42,0,22.44-5.89,23.93-19.08Z"/><polygon class="cls-7" points="249.35 184.72 244.26 177.74 247.98 174 253.08 180.97 249.35 184.72"/><polygon class="cls-19" points="258.17 174 253.08 180.97 256.82 184.7 261.87 177.67 258.17 174"/><polygon class="cls-7" points="271.37 97.08 234.72 97.08 230.77 79.68 275.32 79.68 271.37 97.08"/><polygon class="cls-19" points="253.04 97.08 271.37 97.08 275.32 79.68 253.04 79.68 253.04 97.08"/><polygon class="cls-22" points="251.3 83.15 251.3 86.64 247.81 86.64 247.81 90.13 251.3 90.13 251.3 93.62 254.79 93.62 254.79 90.13 254.79 86.64 254.79 83.15 251.3 83.15"/><polygon class="cls-23" points="254.79 86.64 254.79 83.15 253.04 83.15 253.04 86.64 253.04 90.13 253.04 93.62 254.79 93.62 254.79 90.13 258.28 90.13 258.28 86.64 254.79 86.64"/><circle class="cls-15" cx="88.42" cy="81.77" r="13.29"/><polygon class="cls-16" points="94.55 159.74 82.4 159.74 84.07 156.58 92.83 156.58 94.55 159.74"/><polygon class="cls-17" points="88.42 150.05 91.76 150.24 91.76 158.08 111.62 168.09 115.39 193.25 88.42 193.25 88.42 150.05"/><polygon class="cls-18" points="88.42 166.26 88.42 150.24 85.1 150.24 85.1 158.08 65.25 168.09 61.47 193.25 88.44 193.25 88.44 166.3 88.42 166.26"/><polygon class="cls-19" points="111.62 168.09 91.76 158.08 88.45 162.58 85.1 158.08 65.25 168.09 61.47 193.25 88.42 193.25 88.44 193.25 115.39 193.25 111.62 168.09"/><polygon class="cls-20" points="115.39 193.25 111.62 168.09 91.76 158.08 88.45 162.58 88.44 193.25 115.39 193.25"/><path class="cls-21" d="M115.56,108.1A25.35,25.35,0,0,0,90.27,82.7H86.49A25.34,25.34,0,0,0,61.2,108.1v9h-.14A5.49,5.49,0,1,0,61.64,128a27.17,27.17,0,0,0,54-4.58C115.62,122.86,115.56,108.1,115.56,108.1Z"/><path class="cls-18" d="M116.09,117.1l-.49,0c0-4.23,0-9,0-9A25.34,25.34,0,0,0,90.28,82.7H88.42v68.09A27.24,27.24,0,0,0,115.24,128a4.8,4.8,0,0,0,.85.07,5.49,5.49,0,0,0,0-11Z"/><path class="cls-15" d="M118,117.35h0a32.13,32.13,0,0,0-1-16.48c-4.22-12.5-14.23-21.29-28.61-21.29a24.61,24.61,0,0,0-4.89.35,34.27,34.27,0,0,0-4,.8V99.3c0-.1,0-.2,0-.29.35,12.6,11.72,17.95,25.71,17.95,2.13,0,5.22-.11,7.58-.2h0Z"/><path class="cls-15" d="M79.5,80.82c-10.89,2.91-17.37,11-20.18,21.52a32.33,32.33,0,0,0-.41,14.77h0c13.27,0,19.3-5.06,20.59-16.41Z"/><polygon class="cls-7" points="85.25 165.81 80.87 159.8 84.07 156.58 88.45 162.58 85.25 165.81"/><polygon class="cls-19" points="92.83 156.58 88.45 162.58 91.67 165.78 96.01 159.74 92.83 156.58"/><polygon class="cls-7" points="104.19 90.43 72.66 90.43 69.26 75.46 107.58 75.46 104.19 90.43"/><polygon class="cls-19" points="88.42 90.43 104.19 90.43 107.58 75.46 88.42 75.46 88.42 90.43"/><polygon class="cls-22" points="86.92 78.44 86.92 81.44 83.92 81.44 83.92 84.45 86.92 84.45 86.92 87.45 89.92 87.45 89.92 84.45 89.92 81.44 89.92 78.44 86.92 78.44"/><polygon class="cls-23" points="89.92 81.44 89.92 78.44 88.42 78.44 88.42 81.44 88.42 84.45 88.42 87.45 89.92 87.45 89.92 84.45 92.92 84.45 92.92 81.44 89.92 81.44"/><path class="cls-24" d="M249.26,210.81a51.44,51.44,0,0,0-26.14-39.34,200.49,200.49,0,0,0-32.71-14.09L169.85,168.9l-20.57-11.52a200.89,200.89,0,0,0-32.71,14.09,51.46,51.46,0,0,0-26.14,39.34l-4,35.58H253.22l-4-35.58Z"/><path class="cls-25" d="M169.85,168.9l-20.57-11.52s-1.6.5-4.28,1.46l24.85,42.8,24.84-42.8c-2.68-1-4.28-1.46-4.28-1.46L169.85,168.9Z"/><polygon class="cls-26" points="186.46 134.36 169.85 134.36 153.23 134.36 149.28 157.38 169.85 192.81 190.41 157.38 186.46 134.36 186.46 134.36"/><path class="cls-27" d="M186.46,134.36H153.23l-1.47,11.22c5.93,6,11.38,8.26,18.09,8.26s12.16-2.24,18.08-8.26l-1.47-11.22Z"/><path class="cls-26" d="M209.41,96.52c-3.1-3-4.82-3-5.76-2.31-.06-.67-.1-1-.1-1,0-31-33.7-27.45-33.7-27.45s-33.71-3.54-33.71,27.45c0,0,0,.37-.09,1-.94-.69-2.66-.65-5.77,2.31-4.08,3.91,4.27,14.93,3,17.63s.79,7.22,4.89,5.48a34.07,34.07,0,0,0,5,10.74c9.76,13.29,16.85,17.71,26.61,17.71s16.85-4.42,26.61-17.71a34.27,34.27,0,0,0,5-10.74c4.11,1.74,6.1-2.86,4.9-5.48s7.11-13.72,3-17.63Z"/><path class="cls-28" d="M169.85,46.24S123.16,33,133.05,94.4l7.48,16.43-4.39-17.66,9.76-14.46V74.28s15.08,4.13,23.95,4.13,23.94-4.13,23.94-4.13v4.43l9.76,14.46-4.39,17.66,7.48-16.43c9.89-61.36-36.79-48.16-36.79-48.16Z"/><polygon class="cls-22" points="221.04 227.05 214.68 227.05 214.68 220.71 206.41 220.71 206.41 227.05 200.05 227.05 200.05 235.32 206.41 235.32 206.41 241.66 214.68 241.66 214.68 235.32 221.04 235.32 221.04 227.05 221.04 227.05"/><path class="cls-29" d="M104.9,339.69l-58.82.45c-4.11-3.14-4.56-7.66-4.56-12.31q0-71.19,0-142.37c0-11,1.46-12.33,12.27-12.33,2.56,0,5.13.05,7.69.07,2,3.25.34,5.43-2.15,7.37-4.84,1.27-6.16,4.74-6.16,9.35q0,60.62,0,121.22c0,3.82,1,7.1,4.16,9.45,2.07,4,5.75,4.57,9.71,4.6,9.18.06,18.36-.05,27.55.06,3.54,0,7.2-.32,10.31,2C107.64,331.42,107.89,335.56,104.9,339.69Z"/><path class="cls-29" d="M104.9,339.69l0-11.95c.33-.35.66-.69,1-1.05,8-3,16.25-1.11,24.38-1.49,6.39-.3,12.81-.08,19.22-.09,4.84,0,7-2.22,6.94-7,0-4.1,0-8.21,0-12.31,0-35.9.05-71.8-.06-107.69,0-4.2,1.06-8.79-2.6-12.28-2.23-1.43-3.2-3.93-4.88-5.83-1.12-2.14-2.7-4.25-.77-6.74a99.23,99.23,0,0,0,10.64-.2c4.32-.51,7.2,1.15,9.24,4.75q.06,75.8.09,151.6c0,8.78-1.77,10.52-10.14,10.5C140.3,339.87,122.6,339.77,104.9,339.69Z"/><path class="cls-30" d="M148.16,173.25l1.46,6c5.49,8.77,3.67,13-6.24,13.09-12.22.13-24.47,1-36.65-.62a6.47,6.47,0,0,1-2.37-1.43c-2.69-5.36-1.71-11-1.19-16.57,1.21-2.62,2-5.27.27-8-.51-2.35-.38-4.56,1.36-6.43,4.45.58,7.9,2.93,10.85,6.16a11.83,11.83,0,0,0,4.6,4.55c6.92,0,13.85.07,20.78,0C143.94,170,146.75,170,148.16,173.25Z"/><path class="cls-31" d="M104.8,159.28c0,2.6.11,5.19.16,7.78.77,1.59.13,3.11-.22,4.64L104.9,190c-1.88,2.17-4.49,2.4-7.05,2.45-10.78.21-21.56.26-32.33,0-3.07-.08-6.45-.26-8-3.55-1.75-3.74-.46-7,2.51-9.65.49-2,1-4,1.46-6,6.22-5.36,13.7-2.85,20.64-3,5.79-.14,11-.09,14.26-6.16C98,161.14,101.25,159.56,104.8,159.28Z"/><path class="cls-7" d="M58.91,179.06a1,1,0,0,1,.84,1.28c-2.57,9.77-2.19,9.79,8.91,9.77q18.12,0,36.24-.09l-.13.19a4.94,4.94,0,0,1,.68,5.9,1,1,0,0,1-.61.49c-10.15,2.89-20.53.2-29.11,1.25,8.4.8,18.55-1.37,28.56,1a1,1,0,0,1,.69.55,1.78,1.78,0,0,1,0,1.56,1,1,0,0,1-.43.44c-6.16,3.24-12.82,1.34-19.25,1.69a109.65,109.65,0,0,1-13.1,0c9.72,1.53,21.13-1.95,32.1,1.79a1,1,0,0,1,.46.32,1.87,1.87,0,0,1,.41,1.28,1,1,0,0,1-.74.93c-10.06,2.9-20.35,0-28.54,1.23,8.23.89,18.53-1.52,28.67,1.1a1.06,1.06,0,0,1,.68.58,3.34,3.34,0,0,1,.13,2.54,1,1,0,0,1-.69.67c-10.12,2.94-20.48.2-29,1.26,8.5.89,18.77-1.47,28.89,1.12a1.11,1.11,0,0,1,.69.58,3.39,3.39,0,0,1,.14,2.54,1.08,1.08,0,0,1-.7.68c-10.12,2.94-20.48.19-29,1.26,8.5.9,18.78-1.48,28.9,1.13a1.07,1.07,0,0,1,.69.59,3.41,3.41,0,0,1,.11,2.55,1,1,0,0,1-.69.66c-10.07,2.9-20.37.19-28.83,1.24,6.08,0,13.9-.06,21.71,0,2.67,0,5.55-.67,7.85,1.45a.94.94,0,0,1,.25.34,15.45,15.45,0,0,1,.15,13.09,1.14,1.14,0,0,1-.27.39c-3.47,3-7.7,1.44-11.59,1.6-6.9.28-13.82,0-19.1.09,8.81.86,19.31-1.48,29.67,1.08a1.09,1.09,0,0,1,.69.57,3.31,3.31,0,0,1,.17,2.58,1,1,0,0,1-.69.68c-10.1,2.95-20.43.19-28.9,1.25,6.12,0,14-.06,21.88,0,2.66,0,5.56-.68,7.81,1.53a1,1,0,0,1,.25.4,28.69,28.69,0,0,1,.12,19,1,1,0,0,1-.21.37c-2.1,2.44-5,1.71-7.72,1.75-8.46.15-16.92-.09-23.51.08,8.8.81,19.5-1.49,30.1,1.05a1,1,0,0,1,.69.56,3.36,3.36,0,0,1,.18,2.6,1.08,1.08,0,0,1-.7.68c-10.08,2.93-20.4.19-28.9,1.25,6.77,0,15.25,0,23.72,0,2.2,0,4.51-.22,6.13,1.74a1.07,1.07,0,0,1,.22.5c2,13.15,3.18,26.28-.71,39.31a1,1,0,0,1-.34.51c-2,1.63-4.5,1.93-7,2-11.28.22-22.57.19-33.86,0a11.57,11.57,0,0,1-6.85-2,1,1,0,0,0-.78-.2c-4.92.7-5.66-2-5.64-6.53.16-42.14.32-84.28-.12-126.42C50.5,181.3,52.15,178.12,58.91,179.06Z"/><path class="cls-32" d="M56.76,321.49l47.91-.26.88.79a4.19,4.19,0,0,1-.82,5.35l.19.37c-13.88-.06-27.75-.32-41.61-.07C58.51,327.76,56.06,326.62,56.76,321.49Z"/><path class="cls-32" d="M104.78,206.85c0-.34,0-7.56,0-7.91,2.51-3,6,4.44,9.27,4.39,8.44-.13,8.44,0,0-.17-3.25,0-6.76.5-9.26-2.48,0-.35,0-.7,0-1.05,3.48-3.23,7.76-1.54,11.66-1.71,6.35-.28,12.73-.08,19.1-.08-7.9,0-15.8.06-23.69-.05-2.44,0-5.2.77-7.06-1.75,0-1.94,0-3.89,0-5.83l37.79-.09c9.74,0,10.42-1.08,7.06-10.86,3.8-.46,2.95,2.41,3.2,4.48,2.27,2.81,2.36,6.18,2.36,9.53q.09,52.47,0,104.93c0,2.83,0,5.68-1.26,8.32-.12.2-.21.49-.41.61-6.83,4.22-11.91,9.31-15,15.14-11.21,2.05-22.41,3.35-33.48-.74l-.3-.3.09-39.75c7.33-4.63,15.35-1.67,23.06-2.12a7.37,7.37,0,0,1,3.37,1.51,20,20,0,0,1,2.14,3c1,1.34,1.75,3.48,3.84,2.85s1.25-3,2-4.48a4.58,4.58,0,0,1,1.05-1.54c2.48-1.41-.17-1.59-.62-2.32-.92-1.05-1.56-2.16-1-3.57,3.47-2.51-1.47-1.16-1.12-2.29-4-6.24-24-39.52-31.73-39.52C102.81,233,105.79,216.91,104.78,206.85Z"/><path class="cls-31" d="M152.56,307.61q.13-61.94.26-123.87c4.17-.3,6.24.61,6.21,5.82q-.39,66.27-.05,132.55c0,4.49-1.44,5.61-5.71,5.54-16.17-.28-32.36-.22-48.54-.28q.12-2.92.25-5.84l34-.29Q145.49,314.16,152.56,307.61Z"/><path class="cls-32" d="M104.78,271.72q0-9.8,0-19.58c5.13-4.08,10.9-2.16,16.51-1.81,5.68,5.07,8.61,15.9,6.12,22.56C119.77,274.23,112.11,276.06,104.78,271.72Z"/><path class="cls-33" d="M104.78,196h41.46c0,1.2-.18,1.71-.19,2.9h-83c0-1.19.28-1.7.28-2.9Z"/><path class="cls-33" d="M104.78,206.85h41.44l.06,3.36H122.05a26.4,26.4,0,0,1-9.07,2c-2.87.05-5.76.19-8.21-1.75H63.33v-3.59Z"/><path class="cls-33" d="M129.54,281l-24.77.5H63.33V277.9h41.44c8-3.18,16-2.32,24.11-.71C130.34,278.23,130.44,279.52,129.54,281Z"/><path class="cls-33" d="M104.78,271.72l23,.23a2.42,2.42,0,0,1-.22,3.79c-7.62,1.2-15.22,1.77-22.78-.44H63.33v-3.58Z"/><path class="cls-32" d="M104.78,242.37q0-6.69,0-13.4c3.12-3.26,6.89-2.35,10.63-1.68,5.09,4.39,6.87,9.67,4.33,16.12C114.61,245.05,109.52,246.13,104.78,242.37Z"/><path class="cls-32" d="M104.77,275.3l23.23-.5c2.43.32,2.59,1.54,1.31,3.33l-24.54-.23Z"/><path class="cls-32" d="M104.55,232.39c5.17-.17,9.72,7.66,14.88,7.49,2.44.32,6.84,11.16,5.56,13-5.6-.07-14.83,1.94-20.44,1.86Z"/><path class="cls-32" d="M104.77,222.8l9.33-.51c2.43.32,2.59,1.54,1.31,3.33l-10.64-.23Z"/><path class="cls-32" d="M104.77,216.62l7.55-.23c1.49.52,2.47,1.3,1.56,3.05l-9.11-.23Z"/><path class="cls-32" d="M112.32,213.27l-7.55-.24v-2.59l9.3,0C114.57,212,113.81,212.87,112.32,213.27Z"/><path class="cls-7" d="M152.56,307.61a24,24,0,0,1-13.63,13.63C138.87,305.35,136.67,307.54,152.56,307.61Z"/><path class="cls-34" d="M131.24,282c3.22,1.12,6-1.29,9.09-1.15a3.23,3.23,0,0,1,0,.76c-.64,2.69,1.74,7.29-2.12,7.72S131.61,286.35,131.24,282Z"/><path class="cls-33" d="M138.62,275.13c-.08-.95-.54-2.14-.62-3.09,2.58-.24,6-.59,9.22,1.21C144.31,275.88,141.08,274.78,138.62,275.13Z"/><path class="cls-33" d="M139.86,281.33c.06-1-.68-2.12-.62-3.1,2,.28,5.66-.76,7.41,1.29C144.75,282.21,141.88,281.2,139.86,281.33Z"/><path class="cls-33" d="M105.39,214.63h41.47c0,1.19-.18,1.7-.19,2.89h-83c0-1.19.28-1.7.28-2.89Z"/><path class="cls-33" d="M105.39,214.63h41.47c0,1.19-.18,1.7-.19,2.89h-83c0-1.19.28-1.7.28-2.89Z"/><path class="cls-33" d="M105.39,214.63h41.47c0,1.19-.18,1.7-.19,2.89h-83c0-1.19.28-1.7.28-2.89Z"/><path class="cls-33" d="M105.39,221.44h41.47c0,1.2-.18,1.7-.19,2.9h-83c0-1.2.28-1.7.28-2.9Z"/><path class="cls-33" d="M105.39,228.26h41.47c0,1.19-.18,1.7-.19,2.89h-83c0-1.19.28-1.7.28-2.89Z"/><path class="cls-33" d="M105.39,235.07h41.47c0,1.2-.18,1.7-.19,2.9h-83c0-1.2.28-1.7.28-2.9Z"/><polygon class="cls-35" points="112.32 213.26 114.07 210.42 122.05 210.21 140.33 281.46 131.24 282.61 129.54 280.98 112.32 213.26 112.32 213.26"/></g></g></g></svg>