<svg xmlns="http://www.w3.org/2000/svg" viewBox="0 0 77.73 77.84"><defs><style>.cls-1{fill:#216c75;}.cls-2{fill:#2a4c51;}</style></defs><title>green_logo</title><g id="Calque_2" data-name="Calque 2"><g id="Calque_3" data-name="Calque 3"><path class="cls-1" d="M5.87,24.28H18.41a5.83,5.83,0,0,0,5.84-5.84V5.84A5.85,5.85,0,0,1,30.09,0h0a5.85,5.85,0,0,1,5.85,5.84V30.12A5.84,5.84,0,0,1,30.09,36H5.87A5.83,5.83,0,0,1,0,30.12H0A5.84,5.84,0,0,1,5.87,24.28Z"/><path class="cls-1" d="M24.28,72.87V58.53a4.94,4.94,0,0,0-4.94-4.94H4.94A4.94,4.94,0,0,1,0,48.65v-1.8a4.94,4.94,0,0,1,4.94-4.94H31A4.94,4.94,0,0,1,36,46.85v26A4.94,4.94,0,0,1,31,77.81h-1.8A4.94,4.94,0,0,1,24.28,72.87Z"/><path class="cls-2" d="M71.86,53.56H59.32a5.85,5.85,0,0,0-5.84,5.84V72a5.83,5.83,0,0,1-5.84,5.84h0A5.83,5.83,0,0,1,41.8,72V47.72a5.83,5.83,0,0,1,5.84-5.84H71.86a5.84,5.84,0,0,1,5.85,5.84h0A5.85,5.85,0,0,1,71.86,53.56Z"/><path class="cls-2" d="M53.45,5.87V18.41a5.84,5.84,0,0,0,5.84,5.84h12.6a5.84,5.84,0,0,1,5.84,5.84h0a5.84,5.84,0,0,1-5.84,5.85H47.61a5.85,5.85,0,0,1-5.84-5.85V5.87A5.84,5.84,0,0,1,47.61,0h0A5.83,5.83,0,0,1,53.45,5.87Z"/></g></g></svg>