<svg xmlns="http://www.w3.org/2000/svg" viewBox="0 0 443.45 350.21"><defs><style>.cls-1{fill:#d5d6db;}.cls-2{fill:#e56354;}.cls-3{fill:#ecf0f3;}.cls-4{fill:#28a2db;}.cls-5{opacity:0.25;}.cls-6{fill:#484d5c;}.cls-7{fill:#ec6c86;}</style></defs><title>hospital_2</title><g id="Calque_2" data-name="Calque 2"><g id="hospital1"><path class="cls-1" d="M12.23,140.75h421V350.2h-421Z"/><path class="cls-2" d="M11.57,134.35H431.88a11.57,11.57,0,0,1,11.57,11.57v6a11.57,11.57,0,0,1-11.57,11.57H11.57A11.57,11.57,0,0,1,0,151.94v-6A11.57,11.57,0,0,1,11.57,134.35Z"/><path class="cls-3" d="M111.62,11H333.8V350.21H111.62Z"/><path class="cls-2" d="M108.24,0h229a10.45,10.45,0,0,1,10.45,10.46v5.82a10.45,10.45,0,0,1-10.45,10.45H108.24A10.45,10.45,0,0,1,97.78,16.28V10.46A10.46,10.46,0,0,1,108.24,0Z"/><path class="cls-4" d="M364,190.88h37.1V228H364Z"/><g class="cls-5"><path class="cls-3" d="M396,190.88l-32,32v-2.26l29.75-29.75Z"/><path class="cls-3" d="M401.07,191.36v6.86L371.31,228H364.5Z"/></g><path class="cls-4" d="M364,255.34h37.1v37.1H364Z"/><g class="cls-5"><path class="cls-3" d="M396,255.34l-32,32V285.1l29.75-29.76Z"/><path class="cls-3" d="M401.07,255.82v6.86l-29.76,29.76H364.5Z"/></g><path class="cls-4" d="M46.78,190.88h37.1V228H46.78Z"/><g class="cls-5"><path class="cls-3" d="M78.79,190.88l-32,32v-2.26l29.75-29.75Z"/><path class="cls-3" d="M83.88,191.36v6.86L54.12,228H47.31Z"/></g><path class="cls-4" d="M46.78,255.34h37.1v37.1H46.78Z"/><g class="cls-5"><path class="cls-3" d="M78.79,255.34l-32,32V285.1l29.75-29.76Z"/><path class="cls-3" d="M83.88,255.82v6.86L54.12,292.44H47.31Z"/></g><path class="cls-4" d="M149,121.55h37.1v37.09H149Z"/><g class="cls-5"><path class="cls-3" d="M181,121.55l-32,32V151.3l29.76-29.75Z"/><path class="cls-3" d="M186.13,122v6.86l-29.75,29.75h-6.82Z"/></g><path class="cls-4" d="M149,186h37.1v37.1H149Z"/><g class="cls-5"><path class="cls-3" d="M181,186l-32,32v-2.25L178.79,186Z"/><path class="cls-3" d="M186.13,186.49v6.86l-29.75,29.76h-6.82Z"/></g><path class="cls-4" d="M204.16,121.55h37.1v37.09h-37.1Z"/><g class="cls-5"><path class="cls-3" d="M236.17,121.55l-32,32V151.3l29.76-29.75Z"/><path class="cls-3" d="M241.26,122v6.86l-29.75,29.75h-6.82Z"/></g><path class="cls-4" d="M204.16,186h37.1v37.1h-37.1Z"/><g class="cls-5"><path class="cls-3" d="M236.17,186l-32,32v-2.25L233.92,186Z"/><path class="cls-3" d="M241.26,186.49v6.86l-29.75,29.76h-6.82Z"/></g><path class="cls-4" d="M259.29,121.55h37.1v37.09h-37.1Z"/><g class="cls-5"><path class="cls-3" d="M291.3,121.55l-32,32V151.3l29.76-29.75Z"/><path class="cls-3" d="M296.39,122v6.86l-29.76,29.75h-6.81Z"/></g><path class="cls-4" d="M259.29,186h37.1v37.1h-37.1Z"/><g class="cls-5"><path class="cls-3" d="M291.3,186l-32,32v-2.25L289.05,186Z"/><path class="cls-3" d="M296.39,186.49v6.86l-29.76,29.76h-6.81Z"/></g><path class="cls-6" d="M173.79,258.57h97.84V350.2H173.79Z"/><path class="cls-7" d="M246.09,60.05h-16.4V43.65H215.74v16.4H199.33V74h16.41v16.4h13.95V74h16.4Z"/></g></g></svg>