<svg xmlns="http://www.w3.org/2000/svg" viewBox="0 0 422.15 320.69"><defs><style>.cls-1{fill:#d5d6db;}.cls-2{fill:#28a2db;}.cls-3{fill:#226c75;}.cls-4{fill:#eff3fa;}.cls-5{fill:#ecf0f3;}.cls-6{fill:#2597c4;}.cls-7{fill:#549e97;}.cls-8{fill:#2a4c51;}.cls-9{fill:#d6e9f8;}.cls-10{fill:#eb6279;}.cls-11{fill:#ed758b;}</style></defs><title>hospital_4_1</title><g id="Calque_2" data-name="Calque 2"><g id="hospital1"><path class="cls-1" d="M211.07,133H416.15V309.42H211.07Z"/><path class="cls-1" d="M6,133H211.08V309.42H6Z"/><path class="cls-2" d="M338.85,157.21h20.94v20.94H338.85Z"/><path class="cls-2" d="M338.85,196.22h20.94v20.95H338.85Z"/><path class="cls-2" d="M378,157.21H399v20.94H378Z"/><path class="cls-2" d="M378,196.22H399v20.95H378Z"/><path class="cls-2" d="M338.85,235.24h20.94v20.94H338.85Z"/><path class="cls-2" d="M338.85,274.26h20.94V295.2H338.85Z"/><path class="cls-2" d="M378,235.24H399v20.94H378Z"/><path class="cls-2" d="M378,274.26H399V295.2H378Z"/><path class="cls-2" d="M23.43,157.21H44.37v20.94H23.43Z"/><path class="cls-2" d="M23.43,196.22H44.37v20.95H23.43Z"/><path class="cls-2" d="M62.6,157.21H83.54v20.94H62.6Z"/><path class="cls-2" d="M62.6,196.22H83.54v20.95H62.6Z"/><path class="cls-2" d="M23.43,235.24H44.37v20.94H23.43Z"/><path class="cls-2" d="M23.43,274.26H44.37V295.2H23.43Z"/><path class="cls-2" d="M62.6,235.24H83.54v20.94H62.6Z"/><path class="cls-2" d="M62.6,274.26H83.54V295.2H62.6Z"/><path class="cls-3" d="M334.47,124h78.7a9,9,0,0,1,9,9h0a9,9,0,0,1-9,9h-78.7a9,9,0,0,1-9-9h0A9,9,0,0,1,334.47,124Z"/><path class="cls-3" d="M9,124h78.7a9,9,0,0,1,9,9h0a9,9,0,0,1-9,9H9a9,9,0,0,1-9-9H0A9,9,0,0,1,9,124Z"/><path class="cls-4" d="M325.49,320.69H161.3l49.77-11.27,49.78,11.27H96.66V49.13H325.49Z"/><path class="cls-5" d="M325.49,320.69H260.85l-49.77-11.27V49.13H325.49Z"/><path class="cls-6" d="M161.3,234.67h99.55v86H161.3Z"/><path class="cls-3" d="M95.33,41.92H326.82a9,9,0,0,1,9,9h0a9,9,0,0,1-9,9H95.33a9,9,0,0,1-9-9h0A9,9,0,0,1,95.33,41.92Z"/><path class="cls-2" d="M161.3,234.67h49.78v86H161.3Z"/><path class="cls-2" d="M282.61,196.22h20.94v20.95H282.61Z"/><path class="cls-2" d="M282.61,235.24h20.94v20.94H282.61Z"/><path class="cls-2" d="M282.61,274.26h20.94V295.2H282.61Z"/><path class="cls-2" d="M117.25,196.22h20.94v20.95H117.25Z"/><path class="cls-2" d="M117.25,235.24h20.94v20.94H117.25Z"/><path class="cls-2" d="M117.25,274.26h20.94V295.2H117.25Z"/><path class="cls-7" d="M161.3,112h99.55V133H161.3Z"/><path class="cls-8" d="M211.07,112h49.78V133H211.07Z"/><path class="cls-3" d="M220.06,41.92H326.82a9,9,0,0,1,9,9h0a9,9,0,0,1-9,9H220.06a9,9,0,0,1-9-9h0A9,9,0,0,1,220.06,41.92Z"/><circle class="cls-4" cx="211.08" cy="50.9" r="50.9"/><path class="cls-9" d="M262,50.9A50.9,50.9,0,0,0,211.08,0V101.8A50.9,50.9,0,0,0,262,50.9Z"/><path class="cls-10" d="M241.41,42.68H219.29V20.57H202.86V42.68H180.74V59.12h22.12V81.24h16.43V59.12h22.12Z"/><path class="cls-11" d="M219.29,20.57h-8.21V81.24h8.21V59.12h22.12V42.68H219.29Z"/><path class="cls-2" d="M160.76,196.22H181.7v20.95H160.76Z"/><path class="cls-2" d="M199.93,196.22h20.94v20.95H199.93Z"/><path class="cls-2" d="M241.27,196.22h20.94v20.95H241.27Z"/><path class="cls-2" d="M282.61,157.21h20.94v20.94H282.61Z"/><path class="cls-2" d="M117.25,157.21h20.94v20.94H117.25Z"/><path class="cls-2" d="M160.76,157.21H181.7v20.94H160.76Z"/><path class="cls-2" d="M199.93,157.21h20.94v20.94H199.93Z"/><path class="cls-2" d="M241.27,157.21h20.94v20.94H241.27Z"/><path class="cls-6" d="M210.4,196.22h10.47v20.95H210.4Z"/><path class="cls-6" d="M210.4,157.21h10.47v20.94H210.4Z"/></g></g></svg>