<svg xmlns="http://www.w3.org/2000/svg" viewBox="0 0 355.54 365.43"><defs><style>.cls-1{fill:#ecf0f3;}.cls-2{fill:#d5d6db;}.cls-3{fill:#ec6c86;}.cls-4{fill:#2a4c51;}.cls-5{fill:#fff;}.cls-6{fill:#549e97;}.cls-7{fill:#e6e6e6;}.cls-8{fill:#28a2db;}</style></defs><title>hospital_3</title><g id="Calque_2" data-name="Calque 2"><g id="hospital1"><rect class="cls-1" x="10.84" y="79.45" width="334.67" height="276.67"/><rect class="cls-2" x="10.97" y="314.04" width="334.49" height="42.86"/><rect class="cls-3" x="4.17" y="64.59" width="348.03" height="14.86" rx="7.43"/><polygon class="cls-4" points="177.33 282.92 136.83 282.92 136.83 354.25 177.33 354.25 217.83 354.25 217.83 282.92 177.33 282.92"/><rect class="cls-5" x="124.3" y="299.91" width="66.87" height="37.35" transform="translate(476.32 160.85) rotate(90)"/><rect class="cls-5" x="163.56" y="299.99" width="66.87" height="37.2" transform="translate(515.58 121.59) rotate(90)"/><path class="cls-4" d="M173.26,324.66h-4.6a.9.9,0,0,1-.9-.91h0a.9.9,0,0,1,.9-.9h4.6a.9.9,0,0,1,.9.9h0A.91.91,0,0,1,173.26,324.66Z"/><path class="cls-4" d="M185.9,324.66h-4.59a.91.91,0,0,1-.91-.91h0a.9.9,0,0,1,.91-.9h4.59a.9.9,0,0,1,.91.9h0A.91.91,0,0,1,185.9,324.66Z"/><rect class="cls-6" y="352.02" width="355.54" height="13.29" rx="6.64"/><rect class="cls-7" x="253.62" y="179.47" width="32.02" height="38.67" transform="translate(468.44 -70.82) rotate(90)"/><polygon class="cls-8" points="252.31 185.51 252.31 211.93 252.31 212.1 286.95 212.1 286.95 185.52 286.95 185.51 252.31 185.51"/><rect class="cls-7" x="183.84" y="179.47" width="32.02" height="38.67" transform="translate(398.66 -1.05) rotate(90)"/><polygon class="cls-8" points="182.53 185.51 182.53 211.93 182.53 212.1 217.17 212.1 217.17 185.52 217.17 185.51 182.53 185.51"/><rect class="cls-7" x="138.14" y="179.47" width="32.02" height="38.67" transform="translate(352.96 44.65) rotate(90)"/><polygon class="cls-8" points="136.83 185.51 136.83 211.93 136.83 212.1 171.47 212.1 171.47 185.52 171.47 185.51 136.83 185.51"/><rect class="cls-7" x="69.23" y="179.47" width="32.02" height="38.67" transform="translate(284.04 113.57) rotate(90)"/><polygon class="cls-8" points="67.92 185.51 67.92 211.93 67.92 212.1 102.56 212.1 102.56 185.52 102.56 185.51 67.92 185.51"/><rect class="cls-7" x="253.62" y="92.76" width="32.02" height="38.67" transform="translate(381.73 -157.53) rotate(90)"/><polygon class="cls-8" points="252.31 98.8 252.31 125.22 252.31 125.39 286.95 125.39 286.95 98.82 286.95 98.8 252.31 98.8"/><rect class="cls-7" x="253.62" y="136.12" width="32.02" height="38.67" transform="translate(425.08 -114.18) rotate(90)"/><polygon class="cls-8" points="252.31 142.16 252.31 168.57 252.31 168.75 286.95 168.75 286.95 142.17 286.95 142.16 252.31 142.16"/><rect class="cls-7" x="183.84" y="92.76" width="32.02" height="38.67" transform="translate(311.95 -87.75) rotate(90)"/><polygon class="cls-8" points="182.53 98.8 182.53 125.22 182.53 125.39 217.17 125.39 217.17 98.82 217.17 98.8 182.53 98.8"/><rect class="cls-7" x="183.84" y="136.12" width="32.02" height="38.67" transform="translate(355.3 -44.4) rotate(90)"/><polygon class="cls-8" points="182.53 142.16 182.53 168.57 182.53 168.75 217.17 168.75 217.17 142.17 217.17 142.16 182.53 142.16"/><rect class="cls-7" x="138.14" y="92.76" width="32.02" height="38.67" transform="translate(266.25 -42.06) rotate(90)"/><polygon class="cls-8" points="136.83 98.8 136.83 125.22 136.83 125.39 171.47 125.39 171.47 98.82 171.47 98.8 136.83 98.8"/><rect class="cls-7" x="138.14" y="136.12" width="32.02" height="38.67" transform="translate(309.61 1.3) rotate(90)"/><polygon class="cls-8" points="136.83 142.16 136.83 168.57 136.83 168.75 171.47 168.75 171.47 142.17 171.47 142.16 136.83 142.16"/><rect class="cls-7" x="69.23" y="92.76" width="32.02" height="38.67" transform="translate(197.33 26.86) rotate(90)"/><polygon class="cls-8" points="67.92 98.8 67.92 125.22 67.92 125.39 102.56 125.39 102.56 98.82 102.56 98.8 67.92 98.8"/><rect class="cls-7" x="69.23" y="136.12" width="32.02" height="38.67" transform="translate(240.69 70.22) rotate(90)"/><polygon class="cls-8" points="67.92 142.16 67.92 168.57 67.92 168.75 102.56 168.75 102.56 142.17 102.56 142.16 67.92 142.16"/><rect class="cls-7" x="253.62" y="221.96" width="32.02" height="38.67" transform="translate(510.93 -28.34) rotate(90)"/><polygon class="cls-8" points="252.31 228 252.31 254.42 252.31 254.59 286.95 254.59 286.95 228.01 286.95 228 252.31 228"/><rect class="cls-7" x="183.84" y="221.96" width="32.02" height="38.67" transform="translate(441.15 41.44) rotate(90)"/><polygon class="cls-8" points="182.53 228 182.53 254.42 182.53 254.59 217.17 254.59 217.17 228.01 217.17 228 182.53 228"/><rect class="cls-7" x="138.14" y="221.96" width="32.02" height="38.67" transform="translate(395.45 87.14) rotate(90)"/><polygon class="cls-8" points="136.83 228 136.83 254.42 136.83 254.59 171.47 254.59 171.47 228.01 171.47 228 136.83 228"/><rect class="cls-7" x="69.23" y="221.96" width="32.02" height="38.67" transform="translate(326.53 156.06) rotate(90)"/><polygon class="cls-8" points="67.92 228 67.92 254.42 67.92 254.59 102.56 254.59 102.56 228.01 102.56 228 67.92 228"/><rect class="cls-7" x="253.62" y="264.18" width="32.02" height="38.67" transform="translate(553.15 13.89) rotate(90)"/><polygon class="cls-8" points="252.31 270.22 252.31 296.64 252.31 296.81 286.95 296.81 286.95 270.24 286.95 270.22 252.31 270.22"/><rect class="cls-7" x="301.78" y="179.47" width="32.02" height="38.67" transform="translate(516.6 -118.99) rotate(90)"/><polygon class="cls-8" points="300.47 185.51 300.47 211.93 300.47 212.1 335.11 212.1 335.11 185.52 335.11 185.51 300.47 185.51"/><rect class="cls-7" x="301.78" y="92.76" width="32.02" height="38.67" transform="translate(429.89 -205.69) rotate(90)"/><polygon class="cls-8" points="300.47 98.8 300.47 125.22 300.47 125.39 335.11 125.39 335.11 98.82 335.11 98.8 300.47 98.8"/><rect class="cls-7" x="301.78" y="136.12" width="32.02" height="38.67" transform="translate(473.24 -162.34) rotate(90)"/><polygon class="cls-8" points="300.47 142.16 300.47 168.57 300.47 168.75 335.11 168.75 335.11 142.17 335.11 142.16 300.47 142.16"/><rect class="cls-7" x="301.78" y="221.96" width="32.02" height="38.67" transform="translate(559.09 -76.5) rotate(90)"/><polygon class="cls-8" points="300.47 228 300.47 254.42 300.47 254.59 335.11 254.59 335.11 228.01 335.11 228 300.47 228"/><rect class="cls-7" x="301.78" y="264.18" width="32.02" height="38.67" transform="translate(601.31 -34.27) rotate(90)"/><polygon class="cls-8" points="300.47 270.22 300.47 296.64 300.47 296.81 335.11 296.81 335.11 270.24 335.11 270.22 300.47 270.22"/><rect class="cls-7" x="22.79" y="179.47" width="32.02" height="38.67" transform="translate(237.6 160.01) rotate(90)"/><polygon class="cls-8" points="21.48 185.51 21.48 211.93 21.48 212.1 56.12 212.1 56.12 185.52 56.12 185.51 21.48 185.51"/><rect class="cls-7" x="22.79" y="92.76" width="32.02" height="38.67" transform="translate(150.9 73.3) rotate(90)"/><polygon class="cls-8" points="21.48 98.8 21.48 125.22 21.48 125.39 56.12 125.39 56.12 98.82 56.12 98.8 21.48 98.8"/><rect class="cls-7" x="22.79" y="136.12" width="32.02" height="38.67" transform="translate(194.25 116.65) rotate(90)"/><polygon class="cls-8" points="21.48 142.16 21.48 168.57 21.48 168.75 56.12 168.75 56.12 142.17 56.12 142.16 21.48 142.16"/><rect class="cls-7" x="22.79" y="221.96" width="32.02" height="38.67" transform="translate(280.09 202.5) rotate(90)"/><polygon class="cls-8" points="21.48 228 21.48 254.42 21.48 254.59 56.12 254.59 56.12 228.01 56.12 228 21.48 228"/><rect class="cls-7" x="22.79" y="264.18" width="32.02" height="38.67" transform="translate(322.31 244.72) rotate(90)"/><polygon class="cls-8" points="21.48 270.22 21.48 296.64 21.48 296.81 56.12 296.81 56.12 270.24 56.12 270.22 21.48 270.22"/><rect class="cls-7" x="69.23" y="264.18" width="32.02" height="38.67" transform="translate(368.75 198.28) rotate(90)"/><polygon class="cls-8" points="67.92 270.22 67.92 296.64 67.92 296.81 102.56 296.81 102.56 270.24 102.56 270.22 67.92 270.22"/><rect class="cls-1" x="145.88" width="64.59" height="64.59"/><polygon class="cls-3" points="200.11 26.4 184 26.4 184 10.28 172.2 10.28 172.2 26.4 156.09 26.4 156.09 38.2 172.2 38.2 172.2 54.31 184 54.31 184 38.2 200.11 38.2 200.11 26.4"/></g></g></svg>