<svg xmlns="http://www.w3.org/2000/svg" viewBox="0 0 384.14 384.93"><defs><style>.cls-1{fill:#fff;}.cls-2{fill:#2a4c51;}.cls-3{fill:#549e97;}.cls-4{fill:#226c75;}.cls-5{fill:#f2f4f9;}.cls-6{fill:#f9eded;}.cls-7{fill:#fad8d7;}.cls-8{fill:#ec6c86;}.cls-9{fill:#e0beba;}</style></defs><title>hospital1</title><g id="Calque_2" data-name="Calque 2"><g id="hospital1"><path class="cls-1" d="M.08,167.33Q.08,85.25,0,3.17C0,.79.25,0,3,0Q192.08.14,381.17,0c2.74,0,3,.79,3,3.17q-.12,82.08-.06,164.16c-1.38.12-2-.94-2.56-1.86-2.55-4.05-6.4-5.22-10.9-5.21q-20.21,0-40.39,0-26.73,0-53.47,0c-2.09,0-4.27.36-6.15-1a4.51,4.51,0,0,1-.89-2.82c0-15.36-.4-30.73.18-46.08.38-1.57,1.26-2,2.74-1.26a32.53,32.53,0,0,1,3.12,2.08A10.83,10.83,0,0,0,290.52,109c3.15-4.07,2.36-10.37-1.89-14.22-1.85-1.67-3.94-3.06-5.94-4.56q-41.37-31-82.7-62c-2.36-1.78-4.81-3.12-7.84-3.09a14.85,14.85,0,0,0-7.86,3.2q-43.72,32.81-87.45,65.6C93,96.73,91,100.4,92.09,105.23c1,4.41,4.08,6.71,8.33,7.59,3.62.75,6.5-1,9.4-2.84,1.39-.86,3.11-2.94,4.4.25.68,9.1.18,18.21.3,27.31.07,5.49,0,11,0,16.47,0,1.74.13,3.52-.89,5.09-1.81,1.51-4,1.14-6.1,1.14-30.2,0-60.4.09-90.59,0-6.14,0-11.8.35-15.24,6.42A1.53,1.53,0,0,1,.08,167.33Z"/><path class="cls-1" d="M384.08,353.33c0,9.88-.05,19.75.05,29.63,0,1.61-.31,2.21-1.93,1.89a7.4,7.4,0,0,0-1.49,0q-188.62,0-377.25.07c-2.82,0-3.52-.62-3.46-3.45.21-9.37.08-18.74.08-28.12,1.56,0,2.06,1.28,2.74,2.25a10.91,10.91,0,0,0,9.28,4.77c1.75,0,3.5,0,5.25,0H187.92c1.38,0,2.75,0,4.13.09,1.49-.11,3-.09,4.48-.09H368.76c1.37,0,2.74,0,4.11-.08a10.51,10.51,0,0,0,8.55-4.64C382.09,354.68,382.51,353.32,384.08,353.33Z"/><path class="cls-2" d="M384.08,353.33c-2.58,6.2-7.2,8.37-13.9,8.35-58-.17-116-.1-174-.1-1.37,0-2.74-.08-4.12-.12a2.61,2.61,0,0,1-.9-1.58,110.61,110.61,0,0,1,.08-19.6A2.61,2.61,0,0,1,192,339a6.16,6.16,0,0,1,4.26-1.09c9.85,0,19.71-.15,29.56.07q22.48-.24,45,0c11.24-.15,22.48-.17,33.73,0,7.52-.13,15-.15,22.55,0,11-.13,22.1-.16,33.15,0,4,0,8,0,12,0,7,.08,10.26,2.66,11.91,9.32Z"/><path class="cls-3" d="M192.08,339.08q0,11.19,0,22.38c-1.49,0-3,.12-4.49.12-57.6,0-115.21-.08-172.81.11-6.9,0-11.84-2-14.72-8.36v-6c1.66-6.39,5.16-9.15,12-9.3,4-.09,7.93,0,11.9,0q16.56-.24,33.11,0,11.28-.21,22.55,0c11.25-.15,22.49-.17,33.73,0,15-.15,29.91-.18,44.86,0,9.91-.17,19.83-.06,29.74-.06a7.29,7.29,0,0,1,3.62.67Z"/><path class="cls-1" d="M23.27,339a81.72,81.72,0,0,1-8.57.06c-6.87-.63-11.77,2-14.62,8.3v-174c1.44-.17,1.89,1,2.47,1.9,2.47,3.8,6,5.38,10.46,5.3,2.36,0,4.72-.07,7.08,0,1.48.07,3.05,0,3.91,1.63a8.54,8.54,0,0,1,.52,3.31c0,28.68.16,57.36-.07,86,.22,21.08.07,42.16.07,63.24C24.52,336.29,24.47,337.81,23.27,339Z"/><path class="cls-1" d="M384.08,347.33c-2.55-6.21-7.15-8.86-13.84-8.3-3.09.26-6.23,0-9.34,0-1.19-1.16-1.26-2.68-1.26-4.18,0-21.06-.16-42.12.07-63.18-.21-28.66-.07-57.33-.07-86a9.26,9.26,0,0,1,.47-3.31c.77-1.65,2.31-1.66,3.79-1.74,2-.11,4-.11,5.93,0,5.14.19,9.56-1,12.21-5.94.4-.74,1-1.48,2-1.27Z"/><path class="cls-4" d="M384.08,173.33c-3,6.42-8.05,8.95-15,8.3a74.86,74.86,0,0,0-8.2.07,6.31,6.31,0,0,1-4.24,1.06c-6.08,0-12.16.13-18.23-.07q-11.26.21-22.52,0-11.26.21-22.54,0c-6.11.2-12.23.07-18.34.07a6.76,6.76,0,0,1-4.31-1,6,6,0,0,1-1-3.9c-.07-5-.08-10,0-14.94,0-1.37.06-2.77,1.19-3.8q50.76,0,101.52-.08c5.93,0,9.22,3.49,11.7,8.26Z"/><path class="cls-3" d="M23.31,181.7a77.23,77.23,0,0,0-8.19-.07c-7,.64-12.07-1.83-15-8.3v-6c3-6.54,8.13-8.41,15.1-8.35,32.71.26,65.41.15,98.12.18.17.18.46.34.49.55,1,7.34,1.5,14.68-.23,22-1.23,1-2.73,1.05-4.2,1.05-6.15,0-12.3.15-18.45-.06-7.51.13-15,.15-22.54,0q-11.27.21-22.53,0c-6.09.2-12.18.07-18.28.07A6.25,6.25,0,0,1,23.31,181.7Z"/><path class="cls-5" d="M113.25,181.52q0-11.18,0-22.36,0-25.22,0-50.42c-.06-2.2,1.9-2.79,3.2-3.76q30.35-22.8,60.71-45.56c3.79-2.84,7.39-5.94,11.29-8.63,1.16-.8,2.29-2.11,4-1A3.53,3.53,0,0,1,193,51c.54,12.61.23,25.22.18,37.82a5.51,5.51,0,0,1-.5,2.18c-.73,1.35-2.15,1.61-3.42,2.07-5,1.8-7.29,5.39-7.36,10.58,0,2.63.05,5.25-.07,7.87a3.29,3.29,0,0,1-3.51,3.53c-2.75.16-5.5,0-8.24.11-6.3.27-10.69,4.53-10.62,10.28s4.33,9.75,10.46,10.05c2.74.14,5.49,0,8.24.1,2.44.1,3.62,1.34,3.69,3.76.06,2.25,0,4.5,0,6.75.08,6.53,1.92,9.24,7.91,11.68,1,.42,2.16.7,2.8,1.76a70.3,70.3,0,0,1-.06,21.67c-1.37,1.72-3.35,1.41-5.18,1.44-5.87.09-11.74-.15-17.6.1s-10.12,4.37-10.26,9.83,4.06,10,10.12,10.32c5.86.28,11.73,0,17.6.11,1.83,0,3.8-.28,5.25,1.34a65.62,65.62,0,0,1,.09,21.84c-1.36,1.73-3.34,1.43-5.17,1.46-5.85.09-11.72-.14-17.57.1-5.68.22-9.71,3.88-10.27,9-.64,5.86,3.66,10.8,10,11.13,5.85.31,11.72,0,17.58.12,1.83,0,3.79-.28,5.29,1.24,1.35,2.57.85,5.36.8,8-.08,4.57.57,9.18-.46,13.72a2.48,2.48,0,0,1-.92,1.06,10.45,10.45,0,0,1-4.76.66c-4,0-8,0-12,0-13,0-15.61,2.61-15.61,15.43q0,22.6,0,45.2c0,2,.32,4-1.2,5.69L113.38,339c-1.19-1.16-1.24-2.68-1.24-4.17,0-21-.16-42,.08-63.07-.13-7.53-.16-15.06,0-22.6-.13-7.5-.15-15,0-22.51q-.21-11.28,0-22.54c-.2-6.1-.07-12.21-.07-18.31A6.31,6.31,0,0,1,113.25,181.52Z"/><path class="cls-6" d="M192.05,181.55q0-11.16,0-22.33l.36-.5a8.18,8.18,0,0,1,2.73-1.17c4.63-1.51,6.76-4.87,7.06-9.55.15-2.37,0-4.74.06-7.12.09-4.61.67-5.21,5.16-5.32,2.37-.06,4.75.07,7.11-.07,6.24-.37,10.19-4.38,10.16-10.23s-4-9.78-10.28-10.1c-2.74-.14-5.49,0-8.24-.08s-3.87-1.32-3.88-3.93c0-1.75,0-3.5,0-5.24,0-8.59-1.47-10.71-9.34-13.6a2.06,2.06,0,0,1-.86-.87q0-20.86,0-41.72c1.75-.71,2.8.63,3.91,1.47,24.2,18.17,48.51,36.2,72.53,54.6,1,.77,2.54,1.28,2.34,3l0,50.32.06,22.37a6.35,6.35,0,0,1,1.09,4.24c0,6.09.13,12.17-.07,18.26q.21,11.26,0,22.52.21,11.25,0,22.51.21,11.31,0,22.61c.22,21,.07,42.09.07,63.14,0,1.49,0,3-1.24,4.17l-44.88.09c-1.53-1.65-1.22-3.72-1.22-5.68,0-16.07,0-32.13,0-48.2,0-9-3.41-12.4-12.41-12.43-5.11,0-10.22,0-15.32,0-1.7,0-3.54.27-4.89-1.24V249.11l.45-.45c1.88-.95,3.91-.61,5.88-.64,5.24-.06,10.49.13,15.72-.07,6.32-.24,10.68-4.61,10.58-10.35-.09-5.56-4.41-9.69-10.58-9.89-5.61-.19-11.22,0-16.84-.07-1.61,0-3.26.18-4.77-.63l-.44-.46V204.11l.45-.45c1.88-.95,3.91-.61,5.88-.64,5.24-.06,10.49.13,15.72-.07,6.32-.24,10.68-4.61,10.58-10.35-.09-5.56-4.41-9.69-10.58-9.89-5.61-.19-11.22,0-16.84-.07-1.61,0-3.26.18-4.77-.63Z"/><path class="cls-4" d="M270.83,108.83Q244.64,89,218.44,69.2c-8.74-6.57-17.59-13-26.39-19.48l.07-.24a4.17,4.17,0,0,1-1.18-3.38q-.16-9.24,0-18.49a4.43,4.43,0,0,1,1.16-3.4c3-.37,5.34,1,7.56,2.62Q244,60,288.23,93.24c5.74,4.31,6.88,11.28,2.89,16.44s-10.92,5.88-16.62,1.67C273.31,110.47,272.06,109.67,270.83,108.83Z"/><path class="cls-3" d="M192.1,24.21q0,12.63,0,25.27-22.91,17.1-45.79,34.22c-11.05,8.29-22,16.69-33,25-1.44,1-2.86,2-4.31,3-5.68,3.75-12.3,2.79-16-2.32S90.26,97.74,95.8,93.55q28.11-21.26,56.33-42.33Q168,39.3,183.92,27.4C186.35,25.58,188.9,24.06,192.1,24.21Z"/><path class="cls-7" d="M270.78,339q0-33.68.11-67.35c1.41-1.34,3.2-1.24,4.93-1.25q40,0,80,0c1.72,0,3.52-.13,4.92,1.24q.09,33.67.17,67.36l-33.76.09c-1.45-1.55-1.15-3.49-1.16-5.33,0-9,0-17.93,0-26.9,0-3.79-1-7.2-4.23-9.5a9.29,9.29,0,0,0-10.2-1c-3.89,1.94-5.64,5.23-5.76,9.35-.21,7.35,0,14.7-.07,22,0,2.36,0,4.73,0,7.1,0,1.49,0,3-1.16,4.2Z"/><path class="cls-2" d="M192,271.48l22.1.1c7.11,0,11.67,4.56,11.68,11.66q.08,27.92.08,55.82l-33.82,0h0c-1.28-1.43-1.2-3.22-1.21-4.95q0-28.77,0-57.52c0-1.73-.13-3.53,1.25-4.92Z"/><path class="cls-4" d="M304.52,339.07q0-16.26.07-32.51c0-7.49,4.72-12.58,11.43-12.47,6.55.11,11,5.13,11.06,12.47,0,10.83,0,21.67.06,32.51Z"/><path class="cls-7" d="M113.3,271.62q0,33.67.08,67.35l-33.77.1c-1.32-1.45-1.13-3.25-1.13-5,0-8.25,0-16.49,0-24.74,0-1.24,0-2.5,0-3.74-.42-6.12-4.7-10.43-10.25-10.33-5.38.1-9.77,4.67-9.91,10.7-.2,8.87,0,17.74-.09,26.61,0,2.2.51,4.54-1.12,6.48L23.27,339q.06-33.66.11-67.34c1.41-1.34,3.2-1.26,4.94-1.26q40,0,80,0C110.09,270.37,111.88,270.29,113.3,271.62Z"/><path class="cls-4" d="M192.13,271.69q0,33.69,0,67.39l-33.81,0q0-27.3.06-54.6c0-8.53,4.34-12.87,12.87-12.87C178.17,271.59,185.15,271.65,192.13,271.69Z"/><path class="cls-4" d="M57.05,339.07q0-16.26,0-32.51c0-7.31,4.53-12.36,11-12.47,6.7-.11,11.41,5,11.43,12.47,0,10.83,0,21.67,0,32.51Z"/><path class="cls-6" d="M113.3,271.62H23.38q0-45-.07-89.93h22.5c1.35,1.42,1.14,3.22,1.17,4.94.06,4.23,0,8.47,0,12.7,0,2.49,1,3.62,3.56,3.59q6.53-.1,13.06,0c2.56,0,3.58-1.1,3.56-3.59,0-4.23,0-8.47,0-12.7,0-1.72-.18-3.52,1.17-4.94H90.81c1.36,1.42,1.15,3.23,1.18,5q.09,6.36,0,12.72c0,2.56,1.09,3.58,3.6,3.55,4.24-.06,8.48,0,12.72,0,1.73,0,3.53-.15,5,1.12v22.58c-1.59,1.35-3.52,1.09-5.36,1.11-4.12.06-8.23.05-12.35,0-2.48,0-3.64,1-3.6,3.55q.09,6.54,0,13.09c0,2.57,1.12,3.56,3.6,3.54q6.36-.06,12.72,0c1.73,0,3.53-.16,5,1.11Z"/><path class="cls-6" d="M360.73,271.62H270.89V249c1.57-1.36,3.51-1.08,5.35-1.11,4.11-.06,8.22-.05,12.34,0,2.48,0,3.64-1,3.6-3.55q-.1-6.54,0-13.08c0-2.57-1.12-3.57-3.6-3.55q-6.36.06-12.71,0c-1.73,0-3.53.17-5-1.11V204c1.82-1.52,4-1.08,6.1-1.11,3.86-.08,7.73-.07,11.59,0,2.52,0,3.62-1,3.59-3.56q-.09-6.35,0-12.71c0-1.72-.19-3.53,1.17-5h22.46c1.35,1.42,1.14,3.23,1.17,5,.06,4.23,0,8.46,0,12.69,0,2.49,1,3.62,3.56,3.59q6.52-.1,13.06,0c2.56,0,3.58-1.1,3.56-3.59,0-4.23,0-8.46,0-12.69,0-1.72-.19-3.53,1.16-5h22.51l0,85.05C360.83,268.38,360.77,270,360.73,271.62Z"/><path class="cls-7" d="M338.35,181.7c0,6.36-.09,12.72,0,19.07,0,2.28-.43,3.44-3.06,3.36-5.48-.17-11-.17-16.46,0-2.63.08-3.09-1.08-3.06-3.36.11-6.35,0-12.71,0-19.07Z"/><path class="cls-7" d="M293.35,181.7c0,6.36-.13,12.71,0,19.06.07,2.66-.86,3.43-3.43,3.37-6.35-.16-12.71-.07-19.06-.09l0-22.52Z"/><path class="cls-7" d="M68.35,181.7c0,6.36-.08,12.72,0,19.08,0,2.28-.43,3.43-3.06,3.35-5.48-.17-11-.17-16.46,0-2.63.08-3.09-1.07-3.06-3.35.11-6.36,0-12.72,0-19.08Z"/><path class="cls-7" d="M113.3,204c-6.36,0-12.72-.07-19.08.09-2.56.06-3.51-.68-3.44-3.35.16-6.36,0-12.72,0-19.08l22.44-.18Q113.28,192.79,113.3,204Z"/><path class="cls-8" d="M192.09,159.22c-7.52-1.16-11.07-5.05-11.29-12-.11-3.44,1.58-8-.76-10-2-1.69-6.43-.59-9.79-.58-5,0-8.73-2.07-10.86-6.57a10.62,10.62,0,0,1,1.36-11.64,11.3,11.3,0,0,1,9.13-4.34c3.57-.13,8.32,1.63,10.36-.79,1.75-2.09.51-6.68.59-10.16.16-6.68,3.9-10.55,11.26-11.66l0,.29c1.4,1.4,1.22,3.22,1.22,4.94q0,28.67,0,57.32c0,1.72.18,3.54-1.21,4.95Z"/><path class="cls-7" d="M192.05,204.11c-7.37,0-14.74,0-22.11,0-6.89,0-11.69-4.79-11.61-11.43.08-6.42,4.87-11,11.61-11,7.37,0,14.74,0,22.11,0l.06.06a4.88,4.88,0,0,1,1.12,3.44q.14,7.78,0,15.56a4.87,4.87,0,0,1-1.12,3.44Z"/><path class="cls-7" d="M192.05,249.11c-7.37,0-14.74,0-22.11,0-6.89,0-11.69-4.79-11.61-11.43.08-6.42,4.87-11,11.61-11,7.37,0,14.74,0,22.11,0l.06.06a4.88,4.88,0,0,1,1.12,3.44q.14,7.78,0,15.56a4.87,4.87,0,0,1-1.12,3.44Z"/><path class="cls-7" d="M113.3,249c-6.34,0-12.69-.06-19,.08-2.47.06-3.6-.51-3.5-3.27.19-5.34.19-10.7,0-16-.1-2.75,1-3.33,3.5-3.27,6.34.14,12.68.07,19,.08Z"/><path class="cls-8" d="M192.07,158.94q0-33.61,0-67.21c6.3,0,11.05,4.32,11.25,10.46.1,3.11.12,6.24,0,9.36-.08,1.94.54,2.66,2.53,2.57,3-.15,6-.08,9,0a11.24,11.24,0,0,1,0,22.48c-3.11.06-6.24.08-9.36,0-1.63-.05-2.19.56-2.15,2.17.08,3.12.07,6.25,0,9.37C203.19,154.54,198.55,159,192.07,158.94Z"/><path class="cls-9" d="M192.11,204.05V181.61c7.36,0,14.72-.05,22.08,0,6.89,0,11.7,4.78,11.64,11.38a11.37,11.37,0,0,1-11.64,11.1C206.83,204.1,199.47,204.06,192.11,204.05Z"/><path class="cls-9" d="M192.11,249.05V226.61c7.36,0,14.72-.05,22.08,0,6.89,0,11.7,4.78,11.64,11.38a11.37,11.37,0,0,1-11.64,11.1C206.83,249.1,199.47,249.06,192.11,249.05Z"/><path class="cls-7" d="M270.89,226.62c6.37,0,12.74.08,19.11-.09,2.66-.07,3.46.84,3.38,3.43-.16,5.37-.13,10.75,0,16.11.05,2.26-.68,3.1-3,3.05-6.49-.13-13-.06-19.48-.08Z"/><path class="cls-7" d="M56.3,249.08c-2.95-.45-7.5,1.63-9.82-.83-2.11-2.24-.5-6.67-.63-10.14-.1-2.86.1-5.74-.06-8.6-.12-2.34.83-3,3.06-3q8.22.18,16.46,0c2.21,0,3.12.62,3.06,3-.13,5.61-.11,11.23,0,16.84,0,2.15-.8,2.85-2.86,2.77C62.64,249,59.77,249.08,56.3,249.08Z"/><path class="cls-7" d="M315.83,237.83c0-2.87.07-5.74,0-8.6-.06-1.88.59-2.7,2.58-2.67,5.85.08,11.71.06,17.57,0,1.79,0,2.4.76,2.39,2.47q-.09,8.79,0,17.58c0,1.71-.6,2.49-2.39,2.47-5.86-.05-11.72-.07-17.57,0-2,0-2.64-.8-2.58-2.68C315.9,243.57,315.83,240.7,315.83,237.83Z"/></g></g></svg>