<svg xmlns="http://www.w3.org/2000/svg" viewBox="0 0 384 337.54"><defs><style>.cls-1{fill:#2a4c51;}.cls-2{fill:#549e97;}.cls-3{fill:#226c75;}.cls-4{fill:#ecf0f3;}.cls-5{fill:#d5d6db;}.cls-6{fill:#eff0f0;}.cls-7{fill:#28a2db;}.cls-8{fill:#ec6c86;}.cls-9{fill:#228db7;}</style></defs><title>hospital_1_1</title><g id="Calque_2" data-name="Calque 2"><g id="hospital1"><path class="cls-1" d="M384,329.18c-2.58,6.2-7.2,8.37-13.9,8.35-58-.17-116-.1-174-.1-1.37,0-2.75-.08-4.12-.12a2.61,2.61,0,0,1-.9-1.58,109.67,109.67,0,0,1,.08-19.6,2.61,2.61,0,0,1,.7-1.29,6.16,6.16,0,0,1,4.26-1.09c9.85,0,19.71-.15,29.56.07q22.49-.24,45,0c11.24-.15,22.48-.17,33.73,0,7.51-.13,15-.15,22.55,0,11.05-.13,22.1-.16,33.14,0,4,0,8,0,12,0,7,.08,10.26,2.66,11.91,9.32Z"/><path class="cls-2" d="M192,314.93q0,11.19,0,22.38c-1.49,0-3,.12-4.49.12-57.6,0-115.21-.08-172.81.11-6.9,0-11.85-2-14.72-8.36v-6c1.66-6.39,5.16-9.15,12-9.3,4-.09,7.93,0,11.9,0q16.56-.25,33.11,0,11.28-.21,22.55,0c11.25-.15,22.49-.17,33.73,0,15-.15,29.91-.18,44.86,0,9.91-.17,19.83-.06,29.74-.06a7.29,7.29,0,0,1,3.62.67Z"/><path class="cls-3" d="M384,149.18c-3,6.42-8.05,8.95-15,8.3a77.44,77.44,0,0,0-8.2.07,6.33,6.33,0,0,1-4.24,1.06c-6.08,0-12.16.13-18.23-.07q-11.26.21-22.52,0-11.27.21-22.54,0c-6.11.2-12.23.07-18.34.07a6.74,6.74,0,0,1-4.31-1,6,6,0,0,1-1-3.9c-.07-5-.08-10,0-14.94,0-1.36.06-2.77,1.19-3.8q50.76,0,101.52-.08c5.93,0,9.22,3.49,11.7,8.26Z"/><path class="cls-2" d="M23.23,157.55a77.4,77.4,0,0,0-8.2-.07c-7,.64-12.06-1.83-15-8.3v-6c3-6.54,8.13-8.41,15.1-8.35,32.7.26,65.41.15,98.12.18.17.18.46.35.49.55,1.05,7.34,1.5,14.68-.23,22-1.23,1-2.73,1-4.2,1-6.15,0-12.3.15-18.45-.06q-11.26.21-22.54,0-11.27.21-22.53,0c-6.09.2-12.19.07-18.28.07A6.25,6.25,0,0,1,23.23,157.55Z"/><path class="cls-4" d="M113.17,157.37q0-11.18,0-22.36,0-25.21,0-50.42c-.06-2.2,1.9-2.79,3.2-3.76Q146.77,58,177.14,35.27c3.79-2.84,7.39-5.93,11.29-8.63,1.16-.8,2.29-2.11,4-1a3.53,3.53,0,0,1,.5,1.18c.54,12.61.23,25.22.17,37.82a5.33,5.33,0,0,1-.49,2.18c-.73,1.35-2.15,1.61-3.42,2.07-5,1.8-7.3,5.39-7.36,10.59,0,2.62.05,5.24-.07,7.86a3.29,3.29,0,0,1-3.51,3.53c-2.75.16-5.5,0-8.24.11-6.3.27-10.69,4.54-10.62,10.28s4.33,9.75,10.46,10c2.74.14,5.49,0,8.24.1,2.44.1,3.62,1.34,3.69,3.76.06,2.25,0,4.5.05,6.75.08,6.53,1.91,9.24,7.91,11.68,1,.42,2.16.7,2.8,1.76a70.3,70.3,0,0,1-.06,21.67c-1.38,1.72-3.35,1.42-5.18,1.44-5.87.09-11.74-.15-17.6.1s-10.12,4.37-10.26,9.83,4.06,10,10.12,10.32c5.86.28,11.73,0,17.6.11,1.83,0,3.8-.28,5.25,1.34a65.62,65.62,0,0,1,.09,21.84c-1.36,1.73-3.34,1.43-5.17,1.46-5.86.09-11.72-.13-17.57.1-5.68.22-9.71,3.88-10.27,9-.64,5.86,3.66,10.8,10,11.13,5.85.31,11.72,0,17.58.12,1.83,0,3.78-.28,5.29,1.24,1.35,2.57.85,5.36.8,8.05-.08,4.57.57,9.17-.46,13.71a2.39,2.39,0,0,1-.93,1.06,10.43,10.43,0,0,1-4.76.66c-4,0-8,0-11.95,0-13,0-15.61,2.61-15.61,15.43q0,22.61,0,45.2c0,2,.32,4-1.2,5.69l-44.89-.09c-1.19-1.16-1.24-2.68-1.24-4.17,0-21-.16-42,.08-63.06-.13-7.54-.16-15.07,0-22.61-.13-7.5-.15-15,0-22.51q-.21-11.26,0-22.54c-.2-6.1-.07-12.21-.07-18.31A6.31,6.31,0,0,1,113.17,157.37Z"/><path class="cls-5" d="M192,157.4q0-11.16,0-22.33c.12-.16.24-.33.35-.5a8.32,8.32,0,0,1,2.74-1.17c4.63-1.51,6.75-4.87,7.06-9.55.15-2.37,0-4.74.06-7.11.09-4.62.67-5.22,5.16-5.33,2.37-.06,4.75.08,7.11-.07,6.24-.37,10.19-4.38,10.16-10.23s-4-9.78-10.28-10.1c-2.74-.14-5.49,0-8.24-.07s-3.87-1.33-3.89-3.94l0-5.24c0-8.58-1.47-10.71-9.34-13.6a2,2,0,0,1-.86-.87q0-20.87,0-41.72c1.75-.7,2.8.63,3.91,1.47,24.2,18.17,48.51,36.2,72.53,54.6,1,.77,2.54,1.29,2.34,3l0,50.32.06,22.38a6.32,6.32,0,0,1,1.09,4.24c0,6.08.13,12.17-.07,18.25.13,7.51.15,15,0,22.52q.21,11.27,0,22.51.21,11.31,0,22.61c.23,21.05.08,42.09.08,63.14,0,1.49-.05,3-1.24,4.17l-44.88.09c-1.53-1.65-1.22-3.72-1.22-5.68,0-16.07,0-32.13,0-48.2,0-9-3.41-12.4-12.41-12.43-5.11,0-10.22,0-15.32,0-1.71,0-3.54.27-4.89-1.24V225l.45-.45c1.88-.95,3.91-.61,5.88-.64,5.24-.06,10.49.13,15.72-.07,6.32-.24,10.68-4.6,10.58-10.35-.09-5.56-4.41-9.69-10.58-9.89-5.61-.19-11.23,0-16.84-.07-1.61,0-3.26.18-4.77-.63l-.44-.46V180l.45-.45c1.88-.95,3.91-.61,5.88-.64,5.24-.06,10.49.13,15.72-.07,6.32-.24,10.68-4.61,10.58-10.35-.09-5.56-4.41-9.69-10.58-9.89-5.61-.19-11.23,0-16.84-.07-1.61,0-3.26.18-4.77-.63Z"/><path class="cls-3" d="M270.75,84.68q-26.19-19.82-52.39-39.63c-8.74-6.57-17.59-13-26.39-19.48l.07-.24A4.17,4.17,0,0,1,190.86,22q-.17-9.24,0-18.49A4.43,4.43,0,0,1,192,.06c2.95-.37,5.34,1,7.56,2.62q44.31,33.18,88.57,66.41C293.89,73.4,295,80.37,291,85.53s-10.91,5.88-16.61,1.67C273.23,86.32,272,85.52,270.75,84.68Z"/><path class="cls-2" d="M192,.06q0,12.63,0,25.27-22.9,17.1-45.79,34.22c-11.05,8.29-22,16.69-33,25-1.44,1-2.86,2-4.31,3-5.68,3.75-12.3,2.79-16-2.32S90.17,73.59,95.72,69.4q28.11-21.24,56.33-42.33,15.88-11.91,31.79-23.82C186.26,1.43,188.82-.09,192,.06Z"/><path class="cls-5" d="M270.7,314.82q0-33.68.11-67.35c1.41-1.34,3.2-1.24,4.93-1.24q40,0,80,0c1.73,0,3.53-.13,4.93,1.24q.09,33.68.17,67.36l-33.76.09c-1.45-1.54-1.15-3.49-1.16-5.32,0-9,0-17.94,0-26.91,0-3.79-1-7.2-4.23-9.5a9.33,9.33,0,0,0-10.21-1c-3.88,1.94-5.63,5.23-5.75,9.35-.21,7.35-.05,14.7-.07,22.05,0,2.36,0,4.73,0,7.1,0,1.49,0,3-1.16,4.2Z"/><path class="cls-1" d="M192,247.33l22.1.1c7.11,0,11.67,4.56,11.68,11.66q.06,27.92.08,55.82l-33.82,0h0c-1.28-1.43-1.2-3.22-1.21-4.95q0-28.75,0-57.52c0-1.72-.13-3.53,1.25-4.92Z"/><path class="cls-3" d="M304.44,314.92q0-16.26.07-32.51c0-7.49,4.71-12.58,11.43-12.47,6.55.11,11,5.13,11.05,12.47.05,10.83.05,21.67.07,32.51Z"/><path class="cls-5" d="M113.22,247.47q0,33.68.08,67.35l-33.77.1c-1.32-1.45-1.13-3.25-1.13-5,0-8.25,0-16.49,0-24.73,0-1.25,0-2.5,0-3.75-.43-6.12-4.7-10.43-10.25-10.33-5.38.1-9.77,4.67-9.91,10.7-.21,8.87,0,17.74-.09,26.61,0,2.2.51,4.54-1.12,6.48l-33.78-.1q.06-33.66.11-67.34c1.41-1.34,3.2-1.25,4.94-1.26q40,0,80,0C110,246.22,111.8,246.15,113.22,247.47Z"/><path class="cls-3" d="M192.05,247.54q0,33.69-.05,67.39l-33.81,0q0-27.3.06-54.6c0-8.53,4.34-12.87,12.86-12.87C178.09,247.44,185.07,247.5,192.05,247.54Z"/><path class="cls-3" d="M57,314.92c0-10.84,0-21.68,0-32.51,0-7.31,4.52-12.36,11.05-12.47,6.7-.11,11.41,5,11.43,12.47,0,10.83,0,21.67,0,32.51Z"/><path class="cls-6" d="M113.22,247.47H23.3q0-45-.07-89.93h22.5c1.35,1.42,1.14,3.22,1.17,4.94.05,4.23,0,8.47,0,12.7,0,2.49,1,3.63,3.56,3.59q6.53-.1,13.06,0c2.56,0,3.58-1.1,3.56-3.59,0-4.23,0-8.47,0-12.7,0-1.72-.18-3.52,1.17-4.94H90.73c1.36,1.42,1.15,3.23,1.18,4.95,0,4.24.06,8.48,0,12.72,0,2.56,1.09,3.58,3.6,3.55,4.24-.06,8.48-.05,12.72,0,1.73,0,3.53-.15,5,1.12v22.58c-1.59,1.35-3.52,1.09-5.36,1.11-4.12.06-8.23,0-12.35,0-2.48,0-3.64,1-3.6,3.55q.09,6.54,0,13.09c0,2.57,1.12,3.56,3.6,3.54q6.36-.06,12.72,0c1.73,0,3.52-.16,5,1.11Z"/><path class="cls-6" d="M360.65,247.47H270.81V224.89c1.57-1.36,3.51-1.08,5.35-1.11q6.16-.08,12.33,0c2.49,0,3.64-1,3.6-3.55q-.09-6.54,0-13.08c0-2.57-1.11-3.57-3.6-3.55q-6.35.06-12.7,0c-1.73,0-3.53.17-5-1.11V179.89c1.82-1.52,4-1.07,6.1-1.11,3.86-.08,7.73-.07,11.59,0,2.51,0,3.62-1,3.59-3.55-.06-4.24,0-8.48,0-12.72,0-1.72-.18-3.53,1.18-4.95h22.46c1.35,1.42,1.14,3.23,1.17,4.95.06,4.23,0,8.46,0,12.69,0,2.49,1,3.63,3.56,3.59q6.52-.1,13.06,0c2.56,0,3.58-1.1,3.56-3.59,0-4.23,0-8.46,0-12.69,0-1.72-.18-3.53,1.17-4.95h22.51l0,85C360.75,244.23,360.69,245.85,360.65,247.47Z"/><path class="cls-7" d="M338.27,157.55c0,6.36-.09,12.72,0,19.08,0,2.27-.43,3.43-3.06,3.35-5.48-.17-11-.17-16.46,0-2.63.08-3.09-1.08-3.06-3.36.11-6.35,0-12.71,0-19.07Z"/><path class="cls-7" d="M293.27,157.55c0,6.36-.13,12.71,0,19.06.07,2.67-.86,3.44-3.43,3.37-6.35-.16-12.71-.07-19.06-.09l0-22.51Z"/><path class="cls-7" d="M68.27,157.55c0,6.36-.09,12.72,0,19.08,0,2.28-.43,3.43-3.06,3.35-5.48-.17-11-.17-16.46,0-2.63.08-3.1-1.07-3.06-3.35.11-6.36,0-12.72,0-19.08Z"/><path class="cls-7" d="M113.22,179.89c-6.36,0-12.72-.07-19.08.09-2.56.06-3.51-.67-3.44-3.35.16-6.36,0-12.72,0-19.08l22.44-.18Q113.19,168.64,113.22,179.89Z"/><path class="cls-8" d="M192,135.07c-7.52-1.16-11.07-5-11.29-12-.11-3.44,1.58-8-.77-10-2-1.69-6.42-.59-9.78-.58-5,0-8.73-2.07-10.86-6.57a10.61,10.61,0,0,1,1.36-11.64,11.29,11.29,0,0,1,9.13-4.34c3.57-.12,8.32,1.63,10.36-.79,1.75-2.08.51-6.68.59-10.16.16-6.68,3.9-10.54,11.26-11.66l0,.29c1.4,1.4,1.21,3.22,1.22,4.94q0,28.67,0,57.32c0,1.73.18,3.54-1.22,4.95Z"/><path class="cls-7" d="M192,180c-7.37,0-14.74,0-22.11,0-6.89,0-11.69-4.79-11.61-11.43.08-6.42,4.87-11,11.61-11.05,7.37,0,14.74,0,22.11,0l.06.06a4.88,4.88,0,0,1,1.12,3.44q.14,7.78,0,15.56A4.87,4.87,0,0,1,192,179.9Z"/><path class="cls-7" d="M192,225c-7.37,0-14.74,0-22.11,0-6.89,0-11.69-4.79-11.61-11.43.08-6.42,4.87-11,11.61-11.05,7.37,0,14.74,0,22.11,0l.06.06a4.88,4.88,0,0,1,1.12,3.44q.14,7.78,0,15.56A4.87,4.87,0,0,1,192,224.9Z"/><path class="cls-7" d="M113.22,224.89c-6.34,0-12.69-.06-19,.08-2.47.06-3.6-.51-3.51-3.27.2-5.34.2-10.7,0-16-.09-2.75,1-3.33,3.51-3.27,6.33.14,12.68.07,19,.08Z"/><path class="cls-8" d="M192,134.79V67.58c6.3,0,11.05,4.32,11.25,10.46.1,3.11.12,6.24,0,9.36-.09,1.94.54,2.66,2.53,2.57,3-.15,6-.08,9,0a11.24,11.24,0,0,1,0,22.48c-3.12.06-6.24.08-9.36,0-1.63,0-2.2.56-2.15,2.17.08,3.12.07,6.25,0,9.37C203.1,130.39,198.47,134.83,192,134.79Z"/><path class="cls-9" d="M192,179.9V157.46c7.36,0,14.72-.05,22.08,0,6.89,0,11.7,4.78,11.64,11.39a11.36,11.36,0,0,1-11.64,11.09C206.75,180,199.39,179.91,192,179.9Z"/><path class="cls-9" d="M192,224.9V202.46c7.36,0,14.72-.05,22.08,0,6.89,0,11.7,4.78,11.64,11.39a11.36,11.36,0,0,1-11.64,11.09C206.75,225,199.39,224.91,192,224.9Z"/><path class="cls-7" d="M270.81,202.47c6.37,0,12.74.08,19.11-.09,2.65-.07,3.46.84,3.38,3.43-.17,5.37-.13,10.75,0,16.12,0,2.25-.68,3.09-3,3-6.49-.13-13-.06-19.48-.08Z"/><path class="cls-7" d="M56.22,224.93c-2.95-.45-7.5,1.63-9.82-.83-2.11-2.24-.5-6.67-.63-10.13-.1-2.87.1-5.75-.06-8.61-.12-2.34.83-3,3.06-3q8.22.18,16.46,0c2.21-.05,3.12.61,3.06,2.95-.13,5.61-.11,11.23,0,16.84,0,2.15-.8,2.85-2.86,2.77C62.56,224.84,59.69,224.93,56.22,224.93Z"/><path class="cls-7" d="M315.75,213.68c0-2.87.07-5.73,0-8.6-.06-1.88.59-2.7,2.58-2.67,5.85.08,11.71.06,17.57,0,1.79,0,2.4.76,2.38,2.47q-.08,8.79,0,17.58c0,1.71-.59,2.49-2.38,2.47-5.86-.05-11.72-.07-17.57,0-2,0-2.64-.8-2.58-2.68C315.82,219.42,315.75,216.55,315.75,213.68Z"/></g></g></svg>