<svg xmlns="http://www.w3.org/2000/svg" viewBox="0 0 425.73 426.32"><defs><style>.cls-1{fill:#216c75;}.cls-2{fill:#f9eded;}</style></defs><title>logo_rose_clair</title><g id="Calque_2" data-name="Calque 2"><g id="Calque_1-2" data-name="Calque 1"><path class="cls-1" d="M32.15,133h68.69a32,32,0,0,0,32-32V32a32,32,0,0,1,32-32h0a32,32,0,0,1,32,32V165a32,32,0,0,1-32,32H32.15a32,32,0,0,1-32-32h0A32,32,0,0,1,32.15,133Z"/></g><g id="Calque_2-2" data-name="Calque 2"><path class="cls-1" d="M133,399.11V320.55a27.07,27.07,0,0,0-27.06-27.06H27.05A27,27,0,0,1,0,266.44v-9.88a27,27,0,0,1,27.05-27.05H169.92A27,27,0,0,1,197,256.56V399.11a27.06,27.06,0,0,1-27.05,27.06H160A27.06,27.06,0,0,1,133,399.11Z"/></g><g id="Calque_3" data-name="Calque 3"><path class="cls-2" d="M393.59,293.34H324.9a32,32,0,0,0-32,32v69a32,32,0,0,1-32,32h0a32,32,0,0,1-32-32v-133a32,32,0,0,1,32-32H393.59a32,32,0,0,1,32,32h0A32,32,0,0,1,393.59,293.34Z"/></g><g id="Calque_4" data-name="Calque 4"><path class="cls-2" d="M292.75,32.15v68.69a32,32,0,0,0,32,32h69a32,32,0,0,1,32,32h0a32,32,0,0,1-32,32h-133a32,32,0,0,1-32-32V32.15a32,32,0,0,1,32-32h0A32,32,0,0,1,292.75,32.15Z"/></g></g></svg>